<svg width="51" height="42" viewBox="0 0 51 42" fill="none" xmlns="http://www.w3.org/2000/svg">
<path fill-rule="evenodd" clip-rule="evenodd" d="M11.6948 11.6949C11.6948 13.4939 12.2283 15.2525 13.2278 16.7483C14.2273 18.2442 15.6479 19.41 17.3099 20.0985C18.972 20.7869 20.8009 20.9671 22.5654 20.6161C24.3298 20.2651 25.9506 19.3988 27.2227 18.1267C28.4948 16.8546 29.3611 15.2339 29.712 13.4694C30.063 11.705 29.8829 9.87606 29.1944 8.21399C28.506 6.55191 27.3401 5.13131 25.8443 4.13183C24.3485 3.13235 22.5898 2.59888 20.7908 2.59888C18.3784 2.59888 16.0648 3.5572 14.359 5.26303C12.6532 6.96886 11.6948 9.28247 11.6948 11.6949ZM7.79639 38.9828H16.7964H33.7849H42.785V32.4857C42.7821 30.0742 41.8229 27.7622 40.1177 26.057C38.4125 24.3518 36.1005 23.3925 33.689 23.3897H25.8924C25.691 23.3899 25.4903 23.3968 25.2907 23.4103C25.091 23.3968 24.8903 23.3899 24.689 23.3897H16.8924C14.4808 23.3925 12.1689 24.3518 10.4637 26.057C8.75844 27.7622 7.79921 30.0742 7.79639 32.4857V38.9828Z" fill="#4CAF50"/>
<path d="M20.6948 11.6949C20.6948 13.4939 21.2283 15.2525 22.2278 16.7483C23.2273 18.2442 24.6479 19.41 26.3099 20.0985C27.972 20.7869 29.8009 20.9671 31.5654 20.6161C33.3298 20.2651 34.9506 19.3988 36.2227 18.1267C37.4948 16.8546 38.3611 15.2339 38.712 13.4694C39.063 11.705 38.8829 9.87606 38.1944 8.21399C37.506 6.55191 36.3401 5.13131 34.8443 4.13183C33.3485 3.13235 31.5898 2.59888 29.7908 2.59888C27.3784 2.59888 25.0648 3.5572 23.359 5.26303C21.6532 6.96886 20.6948 9.28247 20.6948 11.6949Z" fill="#4CAF50"/>
<mask id="mask0_56_56" style="mask-type:alpha" maskUnits="userSpaceOnUse" x="7" y="2" width="27" height="37">
<path d="M7.79639 38.9828H33.7849V32.4856C33.7821 30.0741 32.8229 27.7621 31.1177 26.0569C29.4125 24.3517 27.1005 23.3925 24.689 23.3896H16.8924C14.4808 23.3925 12.1689 24.3517 10.4637 26.0569C8.75844 27.7621 7.79921 30.0741 7.79639 32.4856V38.9828Z" fill="black"/>
<path d="M11.6948 11.6949C11.6948 13.4939 12.2283 15.2525 13.2278 16.7483C14.2273 18.2442 15.6479 19.41 17.3099 20.0985C18.972 20.7869 20.8009 20.9671 22.5654 20.6161C24.3298 20.2651 25.9506 19.3988 27.2227 18.1267C28.4948 16.8546 29.3611 15.2339 29.712 13.4694C30.063 11.705 29.8829 9.87606 29.1944 8.21399C28.506 6.55191 27.3401 5.13131 25.8443 4.13183C24.3485 3.13235 22.5898 2.59888 20.7908 2.59888C18.3784 2.59888 16.0648 3.5572 14.359 5.26303C12.6532 6.96886 11.6948 9.28247 11.6948 11.6949Z" fill="black"/>
</mask>
<g mask="url(#mask0_56_56)">
<path d="M16.7964 38.9828H42.7849V32.4856C42.7821 30.0741 41.8229 27.7621 40.1177 26.0569C38.4125 24.3517 36.1005 23.3925 33.689 23.3896H25.8924C23.4808 23.3925 21.1689 24.3517 19.4637 26.0569C17.7584 27.7621 16.7992 30.0741 16.7964 32.4856V38.9828Z" fill="#11AA7A"/>
<path d="M20.6948 11.6949C20.6948 13.4939 21.2283 15.2525 22.2278 16.7483C23.2273 18.2442 24.6479 19.41 26.3099 20.0985C27.972 20.7869 29.8009 20.9671 31.5654 20.6161C33.3298 20.2651 34.9506 19.3988 36.2227 18.1267C37.4948 16.8546 38.3611 15.2339 38.712 13.4694C39.063 11.705 38.8829 9.87606 38.1944 8.21399C37.506 6.55191 36.3401 5.13131 34.8443 4.13183C33.3485 3.13235 31.5898 2.59888 29.7908 2.59888C27.3784 2.59888 25.0648 3.5572 23.359 5.26303C21.6532 6.96886 20.6948 9.28247 20.6948 11.6949Z" fill="#11AA7A"/>
</g>
</svg>
