<svg width="210" height="40" viewBox="0 0 210 40" fill="none" xmlns="http://www.w3.org/2000/svg">
<path fill-rule="evenodd" clip-rule="evenodd" d="M11.0979 11.25C11.0979 12.9806 11.6041 14.6723 12.5526 16.1112C13.5011 17.5502 14.8492 18.6717 16.4264 19.3339C18.0037 19.9962 19.7392 20.1695 21.4136 19.8319C23.088 19.4942 24.626 18.6609 25.8332 17.4372C27.0404 16.2135 27.8625 14.6544 28.1955 12.957C28.5286 11.2597 28.3576 9.50037 27.7043 7.90152C27.051 6.30267 25.9447 4.9361 24.5252 3.97464C23.1057 3.01318 21.4368 2.5 19.7296 2.5C17.4404 2.5 15.2448 3.42187 13.6261 5.06282C12.0073 6.70376 11.0979 8.92936 11.0979 11.25ZM7.39844 37.5H15.9391H32.0605H40.6012V31.25C40.5985 28.9302 39.6882 26.7062 38.07 25.0658C36.4519 23.4254 34.2579 22.5027 31.9694 22.5H24.5708C24.3797 22.5002 24.1893 22.5069 23.9998 22.5198C23.8103 22.5069 23.6199 22.5002 23.4288 22.5H16.0302C13.7417 22.5027 11.5478 23.4254 9.92957 25.0658C8.31139 26.7062 7.40111 28.9302 7.39844 31.25V37.5Z" fill="#4CAF50"/>
<path d="M19.6387 11.25C19.6387 12.9806 20.1449 14.6723 21.0934 16.1112C22.0418 17.5502 23.3899 18.6717 24.9672 19.3339C26.5444 19.9962 28.28 20.1695 29.9544 19.8319C31.6288 19.4942 33.1668 18.6609 34.374 17.4372C35.5811 16.2135 36.4032 14.6544 36.7363 12.957C37.0693 11.2597 36.8984 9.50037 36.2451 7.90152C35.5918 6.30267 34.4854 4.9361 33.0659 3.97464C31.6465 3.01318 29.9776 2.5 28.2704 2.5C25.9811 2.5 23.7856 3.42187 22.1668 5.06282C20.5481 6.70376 19.6387 8.92936 19.6387 11.25Z" fill="#4CAF50"/>
<mask id="mask0_56_78" style="mask-type:alpha" maskUnits="userSpaceOnUse" x="7" y="2" width="26" height="36">
<path d="M7.39844 37.5H32.0605V31.25C32.0579 28.9302 31.1476 26.7062 29.5294 25.0658C27.9112 23.4255 25.7173 22.5027 23.4288 22.5H16.0302C13.7417 22.5027 11.5478 23.4255 9.92957 25.0658C8.31139 26.7062 7.40111 28.9302 7.39844 31.25V37.5Z" fill="black"/>
<path d="M11.0981 11.25C11.0981 12.9806 11.6044 14.6723 12.5529 16.1112C13.5013 17.5502 14.8494 18.6717 16.4267 19.3339C18.0039 19.9962 19.7395 20.1695 21.4138 19.8319C23.0882 19.4942 24.6263 18.6609 25.8334 17.4372C27.0406 16.2135 27.8627 14.6544 28.1958 12.957C28.5288 11.2597 28.3579 9.50037 27.7046 7.90152C27.0512 6.30267 25.9449 4.9361 24.5254 3.97464C23.1059 3.01318 21.4371 2.5 19.7299 2.5C17.4406 2.5 15.2451 3.42187 13.6263 5.06282C12.0076 6.70376 11.0981 8.92936 11.0981 11.25Z" fill="black"/>
</mask>
<g mask="url(#mask0_56_78)">
<path d="M15.939 37.5H40.6011V31.25C40.5984 28.9302 39.6881 26.7062 38.0699 25.0658C36.4517 23.4255 34.2578 22.5027 31.9693 22.5H24.5707C22.2822 22.5027 20.0883 23.4255 18.4701 25.0658C16.8519 26.7062 15.9416 28.9302 15.939 31.25V37.5Z" fill="#11AA7A"/>
<path d="M19.6387 11.25C19.6387 12.9806 20.1449 14.6723 21.0934 16.1112C22.0418 17.5502 23.3899 18.6717 24.9672 19.3339C26.5444 19.9962 28.28 20.1695 29.9544 19.8319C31.6288 19.4942 33.1668 18.6609 34.374 17.4372C35.5811 16.2135 36.4032 14.6544 36.7363 12.957C37.0693 11.2597 36.8984 9.50037 36.2451 7.90152C35.5918 6.30267 34.4854 4.9361 33.0659 3.97464C31.6465 3.01318 29.9776 2.5 28.2704 2.5C25.9811 2.5 23.7856 3.42187 22.1668 5.06282C20.5481 6.70376 19.6387 8.92936 19.6387 11.25Z" fill="#11AA7A"/>
</g>
<path d="M68.9176 17.1562H65.1847C65.1165 16.6733 64.9773 16.2443 64.767 15.8693C64.5568 15.4886 64.2869 15.1648 63.9574 14.8977C63.6278 14.6307 63.2472 14.4261 62.8153 14.2841C62.3892 14.142 61.9261 14.071 61.4261 14.071C60.5227 14.071 59.7358 14.2955 59.0653 14.7443C58.3949 15.1875 57.875 15.8352 57.5057 16.6875C57.1364 17.5341 56.9517 18.5625 56.9517 19.7727C56.9517 21.017 57.1364 22.0625 57.5057 22.9091C57.8807 23.7557 58.4034 24.3949 59.0739 24.8267C59.7443 25.2585 60.5199 25.4744 61.4006 25.4744C61.8949 25.4744 62.3523 25.4091 62.7727 25.2784C63.1989 25.1477 63.5767 24.9574 63.9062 24.7074C64.2358 24.4517 64.5085 24.142 64.7244 23.7784C64.946 23.4148 65.0994 23 65.1847 22.5341L68.9176 22.5511C68.821 23.3523 68.5795 24.125 68.1932 24.8693C67.8125 25.608 67.2983 26.2699 66.6506 26.8551C66.0085 27.4347 65.2415 27.8949 64.3494 28.2358C63.4631 28.571 62.4602 28.7386 61.3409 28.7386C59.7841 28.7386 58.392 28.3864 57.1648 27.6818C55.9432 26.9773 54.9773 25.9574 54.267 24.6222C53.5625 23.2869 53.2102 21.6705 53.2102 19.7727C53.2102 17.8693 53.5682 16.25 54.2841 14.9148C55 13.5795 55.9716 12.5625 57.1989 11.8636C58.4261 11.1591 59.8068 10.8068 61.3409 10.8068C62.3523 10.8068 63.2898 10.9489 64.1534 11.233C65.0227 11.517 65.7926 11.9318 66.4631 12.4773C67.1335 13.017 67.679 13.679 68.0994 14.4631C68.5256 15.2472 68.7983 16.1449 68.9176 17.1562ZM94.9908 11.0455L99.2095 24.3068H99.3714L103.599 11.0455H107.69L101.673 28.5H96.9169L90.8913 11.0455H94.9908Z" fill="#4CAF50"/>
<path d="M77.4105 28.7557C76.0866 28.7557 74.9418 28.4744 73.9759 27.9119C73.0156 27.3437 72.2741 26.554 71.7514 25.5426C71.2287 24.5256 70.9673 23.3466 70.9673 22.0057C70.9673 20.6534 71.2287 19.4716 71.7514 18.4602C72.2741 17.4432 73.0156 16.6534 73.9759 16.0909C74.9418 15.5227 76.0866 15.2386 77.4105 15.2386C78.7344 15.2386 79.8764 15.5227 80.8366 16.0909C81.8026 16.6534 82.5469 17.4432 83.0696 18.4602C83.5923 19.4716 83.8537 20.6534 83.8537 22.0057C83.8537 23.3466 83.5923 24.5256 83.0696 25.5426C82.5469 26.554 81.8026 27.3437 80.8366 27.9119C79.8764 28.4744 78.7344 28.7557 77.4105 28.7557ZM77.4276 25.9432C78.0298 25.9432 78.5327 25.7727 78.9361 25.4318C79.3395 25.0852 79.6435 24.6136 79.848 24.017C80.0582 23.4205 80.1634 22.7415 80.1634 21.9801C80.1634 21.2188 80.0582 20.5398 79.848 19.9432C79.6435 19.3466 79.3395 18.875 78.9361 18.5284C78.5327 18.1818 78.0298 18.0085 77.4276 18.0085C76.8196 18.0085 76.3082 18.1818 75.8935 18.5284C75.4844 18.875 75.1747 19.3466 74.9645 19.9432C74.7599 20.5398 74.6577 21.2188 74.6577 21.9801C74.6577 22.7415 74.7599 23.4205 74.9645 24.017C75.1747 24.6136 75.4844 25.0852 75.8935 25.4318C76.3082 25.7727 76.8196 25.9432 77.4276 25.9432ZM114.161 28.7557C112.837 28.7557 111.692 28.4744 110.726 27.9119C109.766 27.3437 109.024 26.554 108.501 25.5426C107.979 24.5256 107.717 23.3466 107.717 22.0057C107.717 20.6534 107.979 19.4716 108.501 18.4602C109.024 17.4432 109.766 16.6534 110.726 16.0909C111.692 15.5227 112.837 15.2386 114.161 15.2386C115.484 15.2386 116.626 15.5227 117.587 16.0909C118.553 16.6534 119.297 17.4432 119.82 18.4602C120.342 19.4716 120.604 20.6534 120.604 22.0057C120.604 23.3466 120.342 24.5256 119.82 25.5426C119.297 26.554 118.553 27.3437 117.587 27.9119C116.626 28.4744 115.484 28.7557 114.161 28.7557ZM114.178 25.9432C114.78 25.9432 115.283 25.7727 115.686 25.4318C116.089 25.0852 116.393 24.6136 116.598 24.017C116.808 23.4205 116.913 22.7415 116.913 21.9801C116.913 21.2188 116.808 20.5398 116.598 19.9432C116.393 19.3466 116.089 18.875 115.686 18.5284C115.283 18.1818 114.78 18.0085 114.178 18.0085C113.57 18.0085 113.058 18.1818 112.643 18.5284C112.234 18.875 111.925 19.3466 111.714 19.9432C111.51 20.5398 111.408 21.2188 111.408 21.9801C111.408 22.7415 111.51 23.4205 111.714 24.017C111.925 24.6136 112.234 25.0852 112.643 25.4318C113.058 25.7727 113.57 25.9432 114.178 25.9432ZM124.784 33.4091C124.324 33.4091 123.892 33.3722 123.489 33.2983C123.091 33.2301 122.761 33.142 122.5 33.0341L123.318 30.3239C123.744 30.4545 124.128 30.5256 124.469 30.5369C124.815 30.5483 125.114 30.4688 125.364 30.2983C125.619 30.1278 125.827 29.8381 125.986 29.429L126.199 28.875L121.503 15.4091H125.321L128.031 25.0227H128.168L130.903 15.4091H134.747L129.659 29.9148C129.415 30.6193 129.082 31.233 128.662 31.7557C128.247 32.2841 127.722 32.6903 127.085 32.9744C126.449 33.2642 125.682 33.4091 124.784 33.4091ZM139.987 28.7472C139.151 28.7472 138.407 28.6023 137.754 28.3125C137.1 28.017 136.583 27.5824 136.202 27.0085C135.827 26.429 135.64 25.7074 135.64 24.8438C135.64 24.1165 135.773 23.5057 136.04 23.0114C136.308 22.517 136.671 22.1193 137.131 21.8182C137.592 21.517 138.114 21.2898 138.7 21.1364C139.29 20.983 139.91 20.875 140.558 20.8125C141.319 20.733 141.933 20.6591 142.398 20.5909C142.864 20.517 143.202 20.4091 143.413 20.267C143.623 20.125 143.728 19.9148 143.728 19.6364V19.5852C143.728 19.0455 143.558 18.6278 143.217 18.3324C142.881 18.0369 142.404 17.8892 141.785 17.8892C141.131 17.8892 140.612 18.0341 140.225 18.3239C139.839 18.608 139.583 18.9659 139.458 19.3977L136.1 19.125C136.271 18.3295 136.606 17.642 137.106 17.0625C137.606 16.4773 138.251 16.0284 139.04 15.7159C139.836 15.3977 140.756 15.2386 141.802 15.2386C142.529 15.2386 143.225 15.3239 143.89 15.4943C144.56 15.6648 145.154 15.929 145.671 16.2869C146.194 16.6449 146.606 17.1051 146.907 17.6676C147.208 18.2244 147.359 18.892 147.359 19.6705V28.5H143.915V26.6847H143.813C143.603 27.0938 143.322 27.4545 142.969 27.767C142.617 28.0739 142.194 28.3153 141.7 28.4915C141.205 28.6619 140.634 28.7472 139.987 28.7472ZM141.026 26.2415C141.56 26.2415 142.032 26.1364 142.441 25.9261C142.85 25.7102 143.171 25.4205 143.404 25.0568C143.637 24.6932 143.754 24.2812 143.754 23.821V22.4318C143.64 22.5057 143.484 22.5739 143.285 22.6364C143.092 22.6932 142.873 22.7472 142.629 22.7983C142.384 22.8437 142.14 22.8864 141.896 22.9261C141.651 22.9602 141.43 22.9915 141.231 23.0199C140.805 23.0824 140.433 23.1818 140.114 23.3182C139.796 23.4545 139.549 23.6392 139.373 23.8722C139.197 24.0994 139.109 24.3835 139.109 24.7244C139.109 25.2188 139.288 25.5966 139.646 25.858C140.009 26.1136 140.469 26.2415 141.026 26.2415ZM156.073 33.6818C154.897 33.6818 153.888 33.5199 153.048 33.196C152.212 32.8778 151.548 32.4432 151.053 31.892C150.559 31.3409 150.238 30.7216 150.09 30.0341L153.448 29.5824C153.55 29.8438 153.712 30.0881 153.934 30.3153C154.156 30.5426 154.448 30.7244 154.812 30.8608C155.181 31.0028 155.63 31.0739 156.158 31.0739C156.948 31.0739 157.599 30.8807 158.11 30.4943C158.627 30.1136 158.886 29.4744 158.886 28.5767V26.1818H158.732C158.573 26.5455 158.335 26.8892 158.016 27.2131C157.698 27.5369 157.289 27.8011 156.789 28.0057C156.289 28.2102 155.692 28.3125 154.999 28.3125C154.016 28.3125 153.121 28.0852 152.315 27.6307C151.513 27.1705 150.874 26.4687 150.397 25.5256C149.925 24.5767 149.69 23.3778 149.69 21.929C149.69 20.446 149.931 19.2074 150.414 18.2131C150.897 17.2187 151.539 16.4744 152.34 15.9801C153.147 15.4858 154.031 15.2386 154.991 15.2386C155.724 15.2386 156.337 15.3636 156.832 15.6136C157.326 15.858 157.724 16.1648 158.025 16.5341C158.332 16.8977 158.567 17.2557 158.732 17.608H158.869V15.4091H162.474V28.6278C162.474 29.7415 162.201 30.6733 161.656 31.4233C161.11 32.1733 160.354 32.7358 159.388 33.1108C158.428 33.4915 157.323 33.6818 156.073 33.6818ZM156.15 25.5852C156.735 25.5852 157.229 25.4403 157.633 25.1506C158.042 24.8551 158.354 24.4347 158.57 23.8892C158.792 23.3381 158.903 22.679 158.903 21.9119C158.903 21.1449 158.795 20.4801 158.579 19.9176C158.363 19.3494 158.05 18.9091 157.641 18.5966C157.232 18.2841 156.735 18.1278 156.15 18.1278C155.553 18.1278 155.05 18.2898 154.641 18.6136C154.232 18.9318 153.923 19.375 153.712 19.9432C153.502 20.5114 153.397 21.1676 153.397 21.9119C153.397 22.6676 153.502 23.321 153.712 23.8722C153.928 24.4176 154.238 24.8409 154.641 25.142C155.05 25.4375 155.553 25.5852 156.15 25.5852ZM171.329 28.7557C169.982 28.7557 168.823 28.483 167.852 27.9375C166.886 27.3864 166.141 26.608 165.619 25.6023C165.096 24.5909 164.835 23.3949 164.835 22.0142C164.835 20.6676 165.096 19.4858 165.619 18.4688C166.141 17.4517 166.877 16.6591 167.826 16.0909C168.781 15.5227 169.9 15.2386 171.184 15.2386C172.048 15.2386 172.852 15.3778 173.596 15.6562C174.346 15.929 174.999 16.3409 175.556 16.892C176.119 17.4432 176.556 18.1364 176.869 18.9716C177.181 19.8011 177.337 20.7727 177.337 21.8864V22.8835H166.283V20.6335H173.92C173.92 20.1108 173.806 19.6477 173.579 19.2443C173.352 18.8409 173.036 18.5256 172.633 18.2983C172.235 18.0653 171.772 17.9489 171.244 17.9489C170.692 17.9489 170.204 18.0767 169.778 18.3324C169.357 18.5824 169.028 18.9205 168.789 19.3466C168.55 19.767 168.428 20.2358 168.423 20.7528V22.892C168.423 23.5398 168.542 24.0994 168.781 24.571C169.025 25.0426 169.369 25.4062 169.812 25.6619C170.255 25.9176 170.781 26.0455 171.388 26.0455C171.792 26.0455 172.161 25.9886 172.496 25.875C172.832 25.7614 173.119 25.5909 173.357 25.3636C173.596 25.1364 173.778 24.858 173.903 24.5284L177.261 24.75C177.09 25.5568 176.741 26.2614 176.212 26.8636C175.69 27.4602 175.013 27.9261 174.184 28.2614C173.36 28.5909 172.408 28.7557 171.329 28.7557ZM188.102 22.9261V15.4091H191.732V28.5H188.246V26.1222H188.11C187.815 26.8892 187.323 27.5057 186.636 27.9716C185.954 28.4375 185.121 28.6705 184.138 28.6705C183.263 28.6705 182.494 28.4716 181.829 28.0739C181.164 27.6761 180.644 27.1108 180.269 26.3778C179.9 25.6449 179.712 24.767 179.707 23.7443V15.4091H183.337V23.0966C183.343 23.8693 183.55 24.4801 183.96 24.929C184.369 25.3778 184.917 25.6023 185.604 25.6023C186.042 25.6023 186.451 25.5028 186.832 25.304C187.212 25.0994 187.519 24.7983 187.752 24.4006C187.991 24.0028 188.107 23.5114 188.102 22.9261ZM194.636 28.5V15.4091H198.156V17.6932H198.293C198.531 16.8807 198.932 16.267 199.494 15.8523C200.057 15.4318 200.705 15.2216 201.438 15.2216C201.619 15.2216 201.815 15.233 202.026 15.2557C202.236 15.2784 202.42 15.3097 202.58 15.3494V18.571C202.409 18.5199 202.173 18.4744 201.872 18.4347C201.571 18.3949 201.295 18.375 201.045 18.375C200.511 18.375 200.034 18.4915 199.614 18.7244C199.199 18.9517 198.869 19.2699 198.625 19.679C198.386 20.0881 198.267 20.5597 198.267 21.0938V28.5H194.636Z" fill="#11AA7A"/>
</svg>
