<svg width="3656" height="2339" viewBox="0 0 3656 2339" fill="none" xmlns="http://www.w3.org/2000/svg">
<g clip-path="url(#clip0_93_1010)">
<path d="M2997.83 376.389C3009.42 376.389 3018.81 366.995 3018.81 355.407C3018.81 343.818 3009.42 334.424 2997.83 334.424C2986.24 334.424 2976.84 343.818 2976.84 355.407C2976.84 366.995 2986.24 376.389 2997.83 376.389Z" fill="#FED4C7"/>
<path d="M3100.55 376.389C3112.14 376.389 3121.54 366.995 3121.54 355.407C3121.54 343.818 3112.14 334.424 3100.55 334.424C3088.96 334.424 3079.57 343.818 3079.57 355.407C3079.57 366.995 3088.96 376.389 3100.55 376.389Z" fill="#FED4C7"/>
<path d="M3203.27 376.389C3214.86 376.389 3224.26 366.995 3224.26 355.407C3224.26 343.818 3214.86 334.424 3203.27 334.424C3191.68 334.424 3182.29 343.818 3182.29 355.407C3182.29 366.995 3191.68 376.389 3203.27 376.389Z" fill="#FED4C7"/>
<path d="M3306 376.389C3317.59 376.389 3326.98 366.995 3326.98 355.407C3326.98 343.818 3317.59 334.424 3306 334.424C3294.41 334.424 3285.01 343.818 3285.01 355.407C3285.01 366.995 3294.41 376.389 3306 376.389Z" fill="#FED4C7"/>
<path d="M2946.87 322.837H3341.93" stroke="#59221D" stroke-width="5" stroke-miterlimit="10" stroke-linecap="round"/>
<path d="M2946.87 386.736H3341.93" stroke="#59221D" stroke-width="5" stroke-miterlimit="10" stroke-linecap="round"/>
<path d="M3144.41 495.371V1396.39" stroke="#59221D" stroke-width="5" stroke-miterlimit="10" stroke-linecap="round"/>
<path d="M3254.64 386.894L3144.41 495.371L3034.16 386.894" stroke="#59221D" stroke-width="5" stroke-miterlimit="10" stroke-linecap="round"/>
<path d="M2988.2 375.512C2999.79 375.512 3009.18 366.118 3009.18 354.53C3009.18 342.941 2999.79 333.547 2988.2 333.547C2976.61 333.547 2967.21 342.941 2967.21 354.53C2967.21 366.118 2976.61 375.512 2988.2 375.512Z" stroke="#59221D" stroke-width="5" stroke-miterlimit="10" stroke-linecap="round"/>
<path d="M3090.92 375.512C3102.51 375.512 3111.91 366.118 3111.91 354.53C3111.91 342.941 3102.51 333.547 3090.92 333.547C3079.33 333.547 3069.94 342.941 3069.94 354.53C3069.94 366.118 3079.33 375.512 3090.92 375.512Z" stroke="#59221D" stroke-width="5" stroke-miterlimit="10" stroke-linecap="round"/>
<path d="M3193.64 375.512C3205.23 375.512 3214.63 366.118 3214.63 354.53C3214.63 342.941 3205.23 333.547 3193.64 333.547C3182.06 333.547 3172.66 342.941 3172.66 354.53C3172.66 366.118 3182.06 375.512 3193.64 375.512Z" stroke="#59221D" stroke-width="5" stroke-miterlimit="10" stroke-linecap="round"/>
<path d="M3296.37 375.512C3307.96 375.512 3317.35 366.118 3317.35 354.53C3317.35 342.941 3307.96 333.547 3296.37 333.547C3284.78 333.547 3275.38 342.941 3275.38 354.53C3275.38 366.118 3284.78 375.512 3296.37 375.512Z" stroke="#59221D" stroke-width="5" stroke-miterlimit="10" stroke-linecap="round"/>
<path d="M1345.36 2105.27H3232.92" stroke="#59221D" stroke-width="5" stroke-miterlimit="10" stroke-linecap="round"/>
<path d="M953.897 1957.72C953.897 2039.21 1014.17 2105.27 1088.52 2105.27H1052.91C975.834 2105.27 919.232 2039.21 919.232 1957.72C919.232 1876.24 975.834 1810.18 1052.91 1810.18H1088.52C1014.17 1810.18 953.897 1876.21 953.897 1957.72Z" fill="white" stroke="#59221D" stroke-width="5" stroke-miterlimit="10"/>
<path d="M1090.52 1810.2H1088.52" stroke="#59221D" stroke-width="5" stroke-miterlimit="10"/>
<path d="M1090.52 2105.27H1088.52" stroke="#59221D" stroke-width="5" stroke-miterlimit="10"/>
<path d="M1223.16 1957.72C1223.16 2038.48 1163.95 2104.09 1090.52 2105.25H1088.52C1014.17 2105.25 953.897 2039.19 953.897 1957.7C953.897 1876.22 1014.17 1810.16 1088.52 1810.16H1090.52C1163.95 1811.37 1223.16 1876.96 1223.16 1957.72Z" fill="#A74602" stroke="#59221D" stroke-width="5" stroke-miterlimit="10"/>
<path d="M1088.52 2063.92C1141.46 2063.92 1184.37 2016.89 1184.37 1958.88C1184.37 1900.87 1141.46 1853.84 1088.52 1853.84C1035.59 1853.84 992.676 1900.87 992.676 1958.88C992.676 2016.89 1035.59 2063.92 1088.52 2063.92Z" stroke="#59221D" stroke-width="5" stroke-miterlimit="10"/>
<path d="M3459.02 1613.19V1957.02H823.796V1663.42C823.798 1643.74 829.457 1624.48 840.1 1607.93C850.742 1591.38 865.919 1578.23 883.822 1570.06L1263.22 1421.78L1503.43 1044.93C1513.81 1028.63 1528.14 1015.21 1545.08 1005.92C1562.02 996.623 1581.03 991.75 1600.36 991.75H2484.7C2689.37 991.75 2771.95 1055.49 2868.61 1166.52L2942.05 1250.86C2991.78 1307.98 3049.2 1357.9 3112.68 1399.21H3341.21C3372.32 1399.21 3402.15 1411.56 3424.14 1433.55C3446.13 1455.54 3458.49 1485.36 3458.49 1516.46V1603.86C3458.84 1606.96 3459.02 1610.08 3459.02 1613.19Z" fill="white" stroke="#59221D" stroke-width="5" stroke-miterlimit="10" stroke-linecap="round"/>
<path d="M3456.4 1563.57V1939.32H835.17V1666.57C835.17 1628.79 873.875 1594.51 909.622 1578.87L1281.85 1439.51H3332.29C3365.2 1439.51 3396.77 1452.58 3420.04 1475.84C3443.32 1499.11 3456.4 1530.66 3456.4 1563.57Z" fill="#20CC96"/>
<path d="M3522.58 1891.5H785.922C767.54 1891.5 752.639 1906.4 752.639 1924.78V1925.31C752.639 1943.69 767.54 1958.59 785.922 1958.59H3522.58C3540.96 1958.59 3555.86 1943.69 3555.86 1925.31V1924.78C3555.86 1906.4 3540.96 1891.5 3522.58 1891.5Z" fill="white" stroke="#59221D" stroke-width="5" stroke-miterlimit="10"/>
<path d="M2851.24 1232.19V1422.84H2258.35V1060.05C2258.35 1048.92 2262.78 1038.24 2270.65 1030.37C2278.53 1022.49 2289.21 1018.07 2300.34 1018.07H2468.07C2639 1018.07 2725.71 1069.08 2820.01 1159.33C2829.86 1168.74 2837.71 1180.04 2843.08 1192.56C2848.45 1205.08 2851.22 1218.56 2851.24 1232.19Z" stroke="#59221D" stroke-width="5" stroke-miterlimit="10" stroke-linecap="round"/>
<path d="M3003 1422.84H2879.83V1242.6C2879.83 1241.24 2880.24 1239.91 2881.02 1238.8C2881.79 1237.68 2882.89 1236.83 2884.16 1236.35C2885.43 1235.87 2886.82 1235.8 2888.14 1236.13C2889.45 1236.46 2890.64 1237.19 2891.53 1238.21L2925.46 1277.18C2954.9 1311 2987.08 1342.33 3021.67 1370.87C3042.86 1388.38 3030.51 1422.84 3003 1422.84Z" stroke="#59221D" stroke-width="5" stroke-miterlimit="10" stroke-linecap="round"/>
<path d="M2851.23 1375.2V1422.7H2797.84V1375.2C2797.84 1362.64 2795.36 1350.2 2790.56 1338.59C2785.75 1326.99 2778.7 1316.44 2769.81 1307.56C2760.93 1298.68 2750.38 1291.63 2738.77 1286.82C2727.17 1282.02 2714.72 1279.54 2702.16 1279.54H2755.57C2768.13 1279.54 2780.57 1282.02 2792.18 1286.83C2803.79 1291.63 2814.33 1298.68 2823.21 1307.56C2832.1 1316.44 2839.14 1326.99 2843.95 1338.6C2848.76 1350.2 2851.23 1362.64 2851.23 1375.2Z" fill="#0D563F" stroke="#59221D" stroke-width="5" stroke-miterlimit="10"/>
<path d="M2797.84 1375.2V1422.7H2258.51V1279.55H2702.16C2714.72 1279.55 2727.16 1282.03 2738.77 1286.83C2750.38 1291.64 2760.93 1298.68 2769.81 1307.56C2778.7 1316.45 2785.74 1326.99 2790.55 1338.6C2795.36 1350.2 2797.84 1362.64 2797.84 1375.2Z" fill="white" stroke="#59221D" stroke-width="5" stroke-miterlimit="10"/>
<path d="M2141.49 1644.98V1645.4C2118.21 1645.4 2095.19 1640.6 2073.86 1631.3C2052.53 1622 2033.35 1608.39 2017.52 1591.34L1858.63 1420.21H1917.98L2005.31 1561.41C2019.9 1585.01 2039.82 1604.86 2063.47 1619.37C2087.12 1633.88 2113.84 1642.65 2141.49 1644.98Z" fill="#59221D"/>
<path d="M1726.04 1216.32H2016.66C2041.31 1216.32 2065.45 1223.32 2086.28 1236.52C2107.1 1249.71 2123.74 1268.55 2134.27 1290.83L2172.32 1371.41L2248.08 1279.25C2256.28 1269.27 2267.62 1262.35 2280.24 1259.61C2292.87 1256.87 2306.05 1258.47 2317.65 1264.15L2390.22 1299.69C2397.33 1303.17 2403.64 1308.08 2408.76 1314.11C2413.88 1320.15 2417.69 1327.18 2419.96 1334.76C2422.23 1342.34 2422.91 1350.31 2421.95 1358.17C2420.99 1366.02 2418.42 1373.59 2414.4 1380.41L2309.28 1558.34C2293.58 1584.91 2271.21 1606.94 2244.4 1622.24C2217.58 1637.54 2187.24 1645.59 2156.37 1645.6C2126.1 1645.6 2096.34 1637.86 2069.9 1623.13C2043.47 1608.4 2021.24 1587.15 2005.32 1561.41L1917.98 1420.21H1520.49L1617.78 1274.24C1629.66 1256.42 1645.76 1241.81 1664.64 1231.7C1683.53 1221.6 1704.62 1216.31 1726.04 1216.32Z" fill="#98C8DB"/>
<g opacity="0.5">
<path d="M2058.78 1223.32V1616.38C2057.3 1615.43 2055.84 1614.43 2054.4 1613.41V1221.91C2055.87 1222.35 2057.33 1222.83 2058.78 1223.32Z" fill="white"/>
<path d="M2085.91 1236.29V1631.03C2084.45 1630.4 2082.98 1629.74 2081.53 1629.06V1233.65C2083.02 1234.5 2084.52 1235.39 2085.91 1236.29Z" fill="white"/>
<path d="M2113.05 1259.05V1640.23C2111.59 1639.87 2110.13 1639.48 2108.68 1639.08V1254.46C2110.17 1255.95 2111.64 1257.48 2113.05 1259.05Z" fill="white"/>
<path d="M2140.2 1303.36V1644.83C2138.73 1644.71 2137.27 1644.56 2135.82 1644.38V1294.12L2137.58 1297.85L2140.2 1303.36Z" fill="white"/>
<path d="M2167.33 1360.85V1645.25C2165.89 1645.35 2164.42 1645.42 2162.96 1645.47V1351.59L2163.22 1352.15L2167.33 1360.85Z" fill="white"/>
<path d="M2194.48 1344.47V1641.45C2193.02 1641.78 2191.56 1642.09 2190.1 1642.39V1349.8L2191.77 1347.76L2194.48 1344.47Z" fill="white"/>
<path d="M2221.62 1311.45V1633.17C2220.17 1633.74 2218.71 1634.3 2217.24 1634.83V1316.77L2221.62 1311.45Z" fill="white"/>
<path d="M2248.74 1278.46V1619.64C2247.31 1620.57 2245.84 1621.39 2244.37 1622.23V1283.77L2248.1 1279.26L2248.74 1278.46Z" fill="white"/>
<path d="M2275.9 1260.74V1599.35C2274.46 1600.66 2273 1601.94 2271.52 1603.2V1262.26C2273 1261.69 2274.42 1261.18 2275.9 1260.74Z" fill="white"/>
<path d="M2303.04 1259.3V1568.33H2302.86C2301.48 1570.34 2300.07 1572.31 2298.64 1574.24V1258.62C2300.12 1258.8 2301.58 1259.02 2303.04 1259.3Z" fill="white"/>
<path d="M2330.17 1270.28V1522.96L2325.8 1530.36V1268.13L2330.17 1270.28Z" fill="white"/>
<path d="M2357.32 1283.57V1477.02L2354.03 1482.57L2352.94 1484.42V1281.44L2357.32 1283.57Z" fill="white"/>
<path d="M2384.46 1296.87V1431.07L2383 1433.55L2380.09 1438.48V1294.72L2384.46 1296.87Z" fill="white"/>
<path d="M2411.6 1317.74V1385.13L2407.22 1392.54V1312.36C2408.8 1314.05 2410.26 1315.85 2411.6 1317.74Z" fill="white"/>
<path d="M1679.68 1224.85V1420.21H1675.3V1226.62C1676.76 1226 1678.22 1225.42 1679.68 1224.85Z" fill="white"/>
<path d="M1706.82 1217.74V1420.2H1702.45V1218.46C1703.9 1218.2 1705.36 1217.96 1706.82 1217.74Z" fill="white"/>
<path d="M1733.97 1216.32H1729.59V1420.21H1733.97V1216.32Z" fill="white"/>
<path d="M1761.1 1216.32H1756.73V1420.21H1761.1V1216.32Z" fill="white"/>
<path d="M1788.25 1216.32H1783.87V1420.21H1788.25V1216.32Z" fill="white"/>
<path d="M1815.39 1216.32H1811.01V1420.21H1815.39V1216.32Z" fill="white"/>
<path d="M1842.52 1216.32H1838.15V1420.21H1842.52V1216.32Z" fill="white"/>
<path d="M1869.67 1216.32H1865.29V1420.21H1869.67V1216.32Z" fill="white"/>
<path d="M1896.81 1216.32H1892.43V1420.21H1896.81V1216.32Z" fill="white"/>
<path d="M1923.94 1216.32V1429.86L1923.52 1429.17L1919.57 1422.78V1216.32H1923.94Z" fill="white"/>
<path d="M1951.09 1216.32V1473.75L1946.71 1466.67V1216.32H1951.09Z" fill="white"/>
<path d="M1978.23 1216.32V1517.62L1973.86 1510.55V1216.32H1978.23Z" fill="white"/>
<path d="M2005.37 1216.32V1561.52L2005.31 1561.41L2000.99 1554.44V1216.32H2005.37Z" fill="white"/>
<path d="M2032.51 1217.29V1595.3C2031.1 1593.92 2029.71 1592.53 2028.36 1591.12L2028.13 1590.89V1216.82C2029.6 1216.95 2031.05 1217.1 2032.51 1217.29Z" fill="white"/>
<path d="M1543.98 1384.99V1420.21H1539.61V1391.56L1543.98 1384.99Z" fill="white"/>
<path d="M1571.13 1344.28V1420.21H1566.75V1350.84L1568.8 1347.76L1571.13 1344.28Z" fill="white"/>
<path d="M1598.27 1303.56V1420.21H1593.88V1310.12L1598.27 1303.56Z" fill="white"/>
<path d="M1625.44 1263.97V1420.21H1621.06V1269.64C1621.87 1268.53 1622.7 1267.42 1623.54 1266.35C1624.13 1265.52 1624.77 1264.73 1625.44 1263.97Z" fill="white"/>
<path d="M1652.55 1239.06V1420.21H1648.17V1242.2C1649.53 1241.17 1650.92 1240.18 1652.33 1239.21L1652.55 1239.06Z" fill="white"/>
<path d="M2251.02 1618.26C2250.27 1618.73 2249.52 1619.2 2248.75 1619.66C2247.32 1620.59 2245.85 1621.4 2244.38 1622.24C2244.15 1622.38 2243.93 1622.51 2243.7 1622.64H2069.02C2066.53 1621.24 2064.09 1619.78 2061.69 1618.26H2251.02Z" fill="white"/>
<path d="M2284.35 1591.12C2282.93 1592.6 2281.48 1594.07 2279.99 1595.5H2032.72C2032.65 1595.44 2032.58 1595.36 2032.51 1595.3C2031.1 1593.92 2029.71 1592.53 2028.36 1591.12H2284.35Z" fill="white"/>
<path d="M2305.78 1563.98C2304.85 1565.38 2303.97 1566.78 2303.04 1568.14V1568.36H2009.87C2008.88 1566.92 2007.91 1565.46 2006.96 1563.98H2305.78Z" fill="white"/>
<path d="M2321.97 1536.85L2319.38 1541.22H1992.83L1990.12 1536.85H2321.97Z" fill="white"/>
<path d="M2338 1509.71L2335.42 1514.08H1976.04L1973.86 1510.55L1973.33 1509.71H2338Z" fill="white"/>
<path d="M2354.03 1482.57L2352.94 1484.42L2351.45 1486.95H1959.26L1956.56 1482.57H2354.03Z" fill="white"/>
<path d="M2369.55 1456.31L2366.97 1460.69H1943.02L1940.3 1456.31H2369.55Z" fill="white"/>
<path d="M2385.58 1429.17L2384.46 1431.07L2383 1433.55H1926.22L1923.94 1429.86L1923.52 1429.17H2385.58Z" fill="white"/>
<path d="M2401.61 1402.03L2399.03 1406.41H1529.71L1532.63 1402.03H2401.61Z" fill="white"/>
<path d="M2417.26 1374.9C2416.59 1376.38 2415.84 1377.84 2415.03 1379.28H1547.79L1550.72 1374.9H2417.26Z" fill="white"/>
<path d="M2163.22 1352.14H1565.88L1566.75 1350.84L1568.8 1347.76H2161.15L2162.96 1351.58L2163.22 1352.14Z" fill="white"/>
<path d="M2422.67 1347.76V1352.14H2188.18L2190.1 1349.8L2191.77 1347.76H2422.67Z" fill="white"/>
<path d="M2150.41 1325H1583.96L1586.89 1320.62H2148.33L2150.41 1325Z" fill="white"/>
<path d="M2407.92 1320.62V1325H2210.48L2214.08 1320.62H2407.92Z" fill="white"/>
<path d="M2137.59 1297.87H1602.06L1604.97 1293.49H2135.82V1294.12L2137.59 1297.87Z" fill="white"/>
<path d="M2386.5 1297.87H2232.79L2236.39 1293.49H2377.56L2380.09 1294.72L2384.46 1296.87L2386.5 1297.87Z" fill="white"/>
<path d="M2122.47 1270.71H1620.23C1620.5 1270.35 1620.76 1269.97 1621.03 1269.62C1621.83 1268.51 1622.66 1267.41 1623.5 1266.33H2119.19C2120.31 1267.78 2121.41 1269.24 2122.47 1270.71Z" fill="white"/>
<path d="M2331.08 1270.71H2256.77C2258.78 1269.1 2260.9 1267.64 2263.11 1266.33H2322.15L2325.8 1268.12L2330.17 1270.26L2331.08 1270.71Z" fill="white"/>
<path d="M2096.34 1243.59H1646.33C1646.93 1243.13 1647.55 1242.65 1648.2 1242.2C1649.56 1241.17 1650.95 1240.18 1652.36 1239.21H2090.38C2092.4 1240.6 2094.39 1242.07 2096.34 1243.59Z" fill="white"/>
</g>
<path d="M2227.02 1307.5L2132.24 1422.84" stroke="#59221D" stroke-width="5" stroke-miterlimit="10" stroke-linecap="round"/>
<path d="M2025.54 1216.32C2046.22 1216.32 2066.49 1222.06 2084.09 1232.91C2101.69 1243.76 2115.93 1259.28 2125.22 1277.75L2172.32 1371.41" stroke="#59221D" stroke-width="5" stroke-miterlimit="10" stroke-linecap="round"/>
<path d="M1917.11 1424.58L1895.14 1379.72" stroke="#59221D" stroke-width="5" stroke-miterlimit="10" stroke-linecap="round"/>
<path d="M1829.13 1216.32H1788.25L1829.69 1190.93V1296.55L1921.5 1217.18L1913.43 1190.93H1925.17C1930.33 1190.93 1935.39 1192.43 1939.71 1195.24L1972.1 1216.32H1922.16" stroke="#59221D" stroke-width="5" stroke-miterlimit="10" stroke-linecap="round"/>
<path d="M1919.76 1216.32L1831.44 1295.68V1159.81H1902.33L1919.76 1216.32Z" fill="#632D23"/>
<path d="M1902.33 1159.8L1919.76 1216.32L1831.45 1181.29V1159.8H1902.33Z" fill="#1A0C12"/>
<path d="M1904.43 1124.1V1126.28H1901.23C1898.69 1126.28 1896.24 1127.3 1894.44 1129.1C1892.64 1130.9 1891.63 1133.34 1891.63 1135.88V1137.42C1888.03 1137.32 1884.55 1136.09 1881.7 1133.89C1878.85 1131.68 1876.77 1128.63 1875.77 1125.17L1874.24 1119.86C1872.93 1115.32 1870.17 1111.33 1866.39 1108.49C1862.62 1105.65 1858.02 1104.12 1853.29 1104.12H1842.2C1839.33 1104.12 1836.5 1104.68 1833.85 1105.77C1831.2 1106.87 1828.8 1108.48 1826.77 1110.5C1824.75 1112.52 1823.14 1114.93 1822.04 1117.57C1820.95 1120.22 1820.38 1123.06 1820.38 1125.92V1124.05C1820.38 1115.55 1823.76 1107.38 1829.78 1101.37C1835.8 1095.35 1843.96 1091.97 1852.47 1091.97H1872.35C1876.56 1091.97 1880.74 1092.8 1884.64 1094.42C1888.53 1096.03 1892.07 1098.4 1895.05 1101.38C1898.03 1104.37 1900.39 1107.91 1902 1111.81C1903.61 1115.71 1904.44 1119.88 1904.43 1124.1Z" fill="#1A0C12"/>
<path d="M1925.89 1143.42C1925.89 1147.97 1924.09 1152.32 1920.87 1155.54C1917.66 1158.75 1913.3 1160.55 1908.75 1160.55H1894.67L1888.52 1170.32C1886.98 1172.76 1884.85 1174.77 1882.32 1176.16C1879.8 1177.56 1876.96 1178.29 1874.08 1178.29H1837.44C1832.91 1178.29 1828.58 1176.49 1825.38 1173.29C1822.18 1170.09 1820.38 1165.75 1820.38 1161.22V1125.92C1820.38 1123.06 1820.95 1120.22 1822.04 1117.57C1823.14 1114.93 1824.75 1112.52 1826.77 1110.5C1828.8 1108.48 1831.2 1106.87 1833.85 1105.77C1836.5 1104.68 1839.33 1104.12 1842.2 1104.12H1853.26C1857.99 1104.12 1862.59 1105.65 1866.37 1108.49C1870.14 1111.33 1872.9 1115.32 1874.21 1119.86L1875.74 1125.17C1876.74 1128.63 1878.82 1131.68 1881.67 1133.89C1884.53 1136.09 1888 1137.32 1891.6 1137.42V1135.88C1891.6 1133.34 1892.62 1130.9 1894.42 1129.1C1896.22 1127.3 1898.66 1126.28 1901.21 1126.28H1908.74C1911 1126.28 1913.23 1126.73 1915.31 1127.59C1917.39 1128.45 1919.28 1129.71 1920.87 1131.3C1922.46 1132.89 1923.73 1134.78 1924.59 1136.86C1925.45 1138.94 1925.89 1141.17 1925.89 1143.42Z" fill="#632D23"/>
<path d="M1901.27 1144.64C1901.27 1142.09 1902.28 1139.65 1904.08 1137.85C1905.88 1136.05 1908.32 1135.04 1910.86 1135.04" stroke="#1A0C12" stroke-width="5" stroke-miterlimit="10" stroke-linecap="round"/>
<path d="M1839.02 1152.72C1828.93 1152.72 1834.43 1127.44 1834.43 1127.44C1834.43 1127.44 1827.31 1125.9 1821.26 1127.44" stroke="#1A0C12" stroke-width="5" stroke-miterlimit="10" stroke-linecap="round"/>
<path d="M1851 1125.99C1851 1125.99 1860.42 1125.42 1867.18 1128.61" stroke="#1A0C12" stroke-width="5" stroke-miterlimit="10" stroke-linecap="round"/>
<path d="M1856.36 1142.7C1857.73 1142.7 1858.83 1140.81 1858.83 1138.49C1858.83 1136.16 1857.73 1134.28 1856.36 1134.28C1855 1134.28 1853.89 1136.16 1853.89 1138.49C1853.89 1140.81 1855 1142.7 1856.36 1142.7Z" fill="#1A0C12"/>
<path d="M1824.85 1142.43C1826.13 1142.43 1827.16 1140.66 1827.16 1138.49C1827.16 1136.31 1826.13 1134.55 1824.85 1134.55C1823.57 1134.55 1822.54 1136.31 1822.54 1138.49C1822.54 1140.66 1823.57 1142.43 1824.85 1142.43Z" fill="#1A0C12"/>
<path d="M1841.22 1161.43C1841.22 1161.43 1851.9 1162.36 1853.9 1158.82" stroke="#1A0C12" stroke-width="5" stroke-miterlimit="10" stroke-linecap="round"/>
<path d="M2421.89 1343.75C2400.22 1354.95 2370.76 1352.79 2354.56 1342.38L2320.1 1320.24C2300.23 1307.48 2287.66 1281.85 2294.44 1258.34C2295.85 1258.39 2297.24 1258.49 2298.66 1258.65C2300.09 1258.8 2301.58 1259.02 2303.04 1259.3C2308.11 1260.25 2313.03 1261.88 2317.66 1264.15L2322.15 1266.35L2325.8 1268.13L2330.17 1270.28L2331.11 1270.73L2352.97 1281.44L2357.35 1283.57L2377.59 1293.49L2380.11 1294.72L2384.49 1296.87L2386.52 1297.87L2390.26 1299.73C2396.66 1302.86 2402.43 1307.16 2407.26 1312.4C2408.83 1314.1 2410.3 1315.9 2411.63 1317.79C2417.13 1325.47 2420.65 1334.39 2421.89 1343.75Z" fill="#1A0C12"/>
<path d="M2327.78 1304.71C2317.16 1297.95 2309.14 1287.81 2305.01 1275.92C2300.89 1264.03 2300.9 1251.1 2305.06 1239.22C2317.19 1204.7 2339.02 1157.12 2358.81 1158.22C2368.73 1158.79 2359.64 1195.41 2374.5 1195.98C2391.96 1196.65 2460.76 1094.51 2478.19 1105.89C2495.62 1117.27 2518.01 1201.21 2498.83 1238.37C2488.41 1258.58 2456 1295.43 2427.98 1320.4C2418.9 1328.48 2407.44 1333.38 2395.32 1334.34C2383.21 1335.31 2371.11 1332.3 2360.86 1325.76L2327.78 1304.71Z" fill="#632D23"/>
<path d="M2502.54 1182.93C2498.24 1191.26 2473.62 1231.09 2465.22 1242.98" stroke="#1A0C12" stroke-width="5" stroke-miterlimit="10" stroke-linecap="round"/>
<path d="M2497.05 1150.36C2492.75 1158.7 2459.67 1207.27 2450.26 1218.86" stroke="#1A0C12" stroke-width="5" stroke-miterlimit="10" stroke-linecap="round"/>
<path d="M2487.71 1123.43C2483.41 1131.77 2444.08 1179.12 2434.68 1190.76" stroke="#1A0C12" stroke-width="5" stroke-miterlimit="10" stroke-linecap="round"/>
<path d="M2370.68 1212.95C2370.68 1212.95 2386.54 1255.54 2368.36 1292.42" stroke="#1A0C12" stroke-width="5" stroke-miterlimit="10" stroke-linecap="round"/>
<path d="M1560.86 1422.84H1402.04C1399.45 1373.73 1426.3 1335.83 1466.42 1335.48C1506.94 1335.08 1547.06 1373.14 1560.86 1422.84Z" stroke="#59221D" stroke-width="5" stroke-miterlimit="10" stroke-linecap="round"/>
<path d="M2851.77 1959.24H3245.87C3242.6 1861.96 3174.55 1767.32 3048.62 1767.32C2940.31 1767.29 2857.45 1857.9 2851.77 1959.24Z" fill="#59221D"/>
<path d="M3265.15 1863.21C3227.82 1776.17 3144.92 1715.61 3048.62 1715.61C2948.97 1715.61 2863.66 1780.44 2828.41 1872.35" stroke="#59221D" stroke-width="5" stroke-miterlimit="10" stroke-linecap="round"/>
<path d="M3066.59 2105.27H3030.96C2953.89 2105.27 2897.3 2039.21 2897.3 1957.72C2897.3 1876.24 2953.89 1810.18 3030.96 1810.18H3066.59C2992.23 1810.18 2931.95 1876.23 2931.95 1957.72C2931.95 2039.22 2992.23 2105.27 3066.59 2105.27Z" fill="#0D563F" stroke="#59221D" stroke-width="5" stroke-miterlimit="10"/>
<path d="M3201.2 1957.72C3201.2 2038.49 3142 2104.1 3068.56 2105.25H3066.59C2992.23 2105.25 2931.95 2039.19 2931.95 1957.7C2931.95 1876.22 2992.23 1810.16 3066.59 1810.16H3068.56C3142 1811.36 3201.2 1876.95 3201.2 1957.72Z" fill="white" stroke="#59221D" stroke-width="5" stroke-miterlimit="10"/>
<path d="M3066.58 2063.92C3119.51 2063.92 3162.42 2016.89 3162.42 1958.88C3162.42 1900.87 3119.51 1853.84 3066.58 1853.84C3013.64 1853.84 2970.73 1900.87 2970.73 1958.88C2970.73 2016.89 3013.64 2063.92 3066.58 2063.92Z" stroke="#59221D" stroke-width="5" stroke-miterlimit="10"/>
<path d="M1327.09 1959.24H1721.2C1717.92 1861.96 1649.88 1767.32 1523.95 1767.32C1415.64 1767.29 1332.79 1857.9 1327.09 1959.24Z" fill="#59221D"/>
<path d="M1740.48 1863.21C1703.16 1776.17 1620.25 1715.61 1523.95 1715.61C1424.3 1715.61 1338.99 1780.44 1303.74 1872.35" stroke="#59221D" stroke-width="5" stroke-miterlimit="10" stroke-linecap="round"/>
<path d="M1541.91 2105.27H1506.29C1429.22 2105.27 1372.62 2039.21 1372.62 1957.72C1372.62 1876.24 1429.22 1810.18 1506.29 1810.18H1541.91C1467.56 1810.18 1407.28 1876.23 1407.28 1957.72C1407.28 2039.22 1467.56 2105.27 1541.91 2105.27Z" fill="#0D563F" stroke="#59221D" stroke-width="5" stroke-miterlimit="10"/>
<path d="M1676.54 1957.72C1676.54 2038.48 1617.33 2104.09 1543.9 2105.25H1541.91C1467.56 2105.25 1407.28 2039.19 1407.28 1957.7C1407.28 1876.22 1467.56 1810.16 1541.91 1810.16H1543.9C1617.33 1811.37 1676.54 1876.96 1676.54 1957.72Z" fill="white" stroke="#59221D" stroke-width="5" stroke-miterlimit="10"/>
<path d="M1541.91 2063.92C1594.85 2063.92 1637.76 2016.89 1637.76 1958.88C1637.76 1900.87 1594.85 1853.84 1541.91 1853.84C1488.98 1853.84 1446.06 1900.87 1446.06 1958.88C1446.06 2016.89 1488.98 2063.92 1541.91 2063.92Z" stroke="#59221D" stroke-width="5" stroke-miterlimit="10"/>
<path d="M3458.49 1594.71H3380.96C3367.58 1594.71 3355.45 1586.17 3349.99 1572.91L3333.8 1533.53C3329.14 1522.15 3336.8 1509.27 3348.29 1509.27H3458.49V1594.71Z" fill="white"/>
<path d="M3458.65 1594.71H3364.98C3357.87 1594.71 3350.92 1592.64 3344.96 1588.77C3339 1584.91 3334.29 1579.4 3331.39 1572.91L3313.82 1533.53C3312.64 1530.9 3312.14 1528.03 3312.36 1525.16C3312.58 1522.3 3313.52 1519.53 3315.08 1517.12C3316.64 1514.71 3318.78 1512.73 3321.31 1511.36C3323.84 1509.98 3326.67 1509.27 3329.54 1509.27H3458.68L3458.65 1594.71Z" stroke="#59221D" stroke-width="5" stroke-miterlimit="10" stroke-linecap="round"/>
<path d="M3458.15 1538.64H3317.6" stroke="#59221D" stroke-width="5" stroke-miterlimit="10" stroke-linecap="round"/>
<path d="M3458.15 1566.28H3329.04" stroke="#59221D" stroke-width="5" stroke-miterlimit="10" stroke-linecap="round"/>
<path d="M1190.38 1704.78H1157.37V1669.33C1157.37 1647.96 1163.55 1627.04 1175.16 1609.09C1186.76 1591.15 1203.31 1576.93 1222.79 1568.15L1235.19 1562.55V1659.91C1235.2 1665.8 1234.05 1671.63 1231.8 1677.08C1229.55 1682.52 1226.26 1687.47 1222.09 1691.64C1217.93 1695.81 1212.99 1699.12 1207.55 1701.37C1202.1 1703.63 1196.27 1704.79 1190.38 1704.78Z" fill="white"/>
<path d="M860.308 1708.27H827.304V1672.82C827.303 1651.45 833.477 1630.52 845.084 1612.57C856.691 1594.62 873.237 1580.41 892.733 1571.64L905.115 1566.04V1663.49C905.115 1669.37 903.956 1675.2 901.704 1680.63C899.452 1686.07 896.151 1691 891.99 1695.16C887.829 1699.32 882.889 1702.62 877.453 1704.87C872.017 1707.12 866.191 1708.28 860.308 1708.27Z" fill="white"/>
<path d="M2264.31 1863.25H2736.75C2758.51 1798.14 2798.19 1740.48 2851.24 1696.89V1441.26" stroke="#59221D" stroke-width="5" stroke-miterlimit="10" stroke-linecap="round"/>
<path d="M2229.81 1270.71V1060.04C2229.81 1048.91 2225.39 1038.23 2217.51 1030.36C2209.64 1022.48 2198.96 1018.06 2187.82 1018.06H1583.73C1564.41 1018.06 1545.39 1022.93 1528.45 1032.23C1511.5 1041.52 1497.18 1054.94 1486.79 1071.24" stroke="#59221D" stroke-width="5" stroke-miterlimit="10" stroke-linecap="round"/>
<path d="M1619.56 1663.49C1666.72 1679.22 1709.75 1705.33 1745.47 1739.9C1781.2 1774.46 1808.72 1816.6 1825.99 1863.21H2229.81V1654.23" stroke="#59221D" stroke-width="5" stroke-miterlimit="10" stroke-linecap="round"/>
<path d="M2674.18 1476.31C2670.73 1469.38 2678.1 1462.43 2682.95 1462.43H2780.31C2785.15 1462.43 2791.57 1467.79 2789.08 1476.31" stroke="#59221D" stroke-width="5" stroke-miterlimit="10" stroke-linecap="round"/>
<path d="M1157.37 1957.02V1663.42C1157.37 1643.74 1163.03 1624.48 1173.67 1607.93C1184.31 1591.38 1199.49 1578.24 1217.39 1570.07L1596.79 1421.78L1837 1044.93C1847.38 1028.63 1861.71 1015.22 1878.65 1005.92C1895.59 996.626 1914.6 991.752 1933.93 991.75" stroke="#59221D" stroke-width="5" stroke-miterlimit="10" stroke-linecap="round"/>
<path d="M1911.26 1422.84H1262.6" stroke="#59221D" stroke-width="5" stroke-miterlimit="10" stroke-linecap="round"/>
<path d="M1277 1400.16L1266.37 1416.83C1259.91 1410.04 1259.13 1408.89 1242.43 1408.89H1195.2C1191.56 1408.89 1187.95 1408.18 1184.58 1406.78C1181.21 1405.39 1178.15 1403.34 1175.57 1400.77C1173 1398.19 1170.95 1395.13 1169.56 1391.77C1168.16 1388.4 1167.44 1384.79 1167.44 1381.14V1364.35C1167.44 1360.71 1168.16 1357.1 1169.56 1353.73C1170.95 1350.36 1173 1347.3 1175.57 1344.73C1178.15 1342.15 1181.21 1340.11 1184.58 1338.71C1187.95 1337.32 1191.56 1336.6 1195.2 1336.6H1212.93C1220.64 1336.61 1228.22 1338.55 1234.98 1342.25C1241.73 1345.96 1247.45 1351.31 1251.59 1357.8L1277 1400.16Z" fill="white" stroke="#59221D" stroke-width="5" stroke-miterlimit="10" stroke-linecap="round"/>
<path d="M1267.6 1414.9L1265.39 1418.37C1263.23 1416.72 1260.9 1415.29 1258.44 1414.13C1249.21 1409.73 1238.39 1408.89 1224.2 1408.89H1176.97C1173.33 1408.89 1169.72 1408.18 1166.35 1406.78C1162.98 1405.39 1159.92 1403.34 1157.34 1400.77C1154.76 1398.19 1152.72 1395.13 1151.32 1391.77C1149.93 1388.4 1149.21 1384.79 1149.21 1381.14V1364.35C1149.21 1360.71 1149.93 1357.1 1151.32 1353.73C1152.72 1350.36 1154.76 1347.3 1157.34 1344.73C1159.92 1342.15 1162.98 1340.11 1166.35 1338.71C1169.72 1337.32 1173.33 1336.6 1176.97 1336.6H1194.7C1202.4 1336.6 1209.99 1338.55 1216.74 1342.25C1223.5 1345.96 1229.21 1351.3 1233.36 1357.8L1267.6 1414.9Z" fill="white"/>
<path d="M1149.22 1365.09V1381.14C1149.22 1384.79 1149.94 1388.4 1151.33 1391.76C1152.72 1395.13 1154.77 1398.19 1157.35 1400.77C1159.92 1403.34 1162.98 1405.39 1166.35 1406.78C1169.72 1408.18 1173.33 1408.89 1176.97 1408.89H1224.21C1238.4 1408.89 1249.23 1409.72 1258.45 1414.13L1231.39 1368.96C1227.25 1362.46 1221.53 1357.11 1214.78 1353.4C1208.02 1349.7 1200.44 1347.75 1192.73 1347.75H1175C1169.46 1347.74 1164.05 1349.38 1159.46 1352.47C1154.86 1355.56 1151.3 1359.96 1149.22 1365.09Z" fill="#20CC96"/>
<path d="M1267.6 1414.9L1265.39 1418.37C1254.65 1410.21 1242.06 1408.89 1224.2 1408.89H1176.97C1173.33 1408.89 1169.72 1408.18 1166.35 1406.78C1162.98 1405.39 1159.92 1403.34 1157.34 1400.77C1154.76 1398.19 1152.72 1395.13 1151.32 1391.77C1149.93 1388.4 1149.21 1384.79 1149.21 1381.14V1364.35C1149.21 1360.71 1149.93 1357.1 1151.32 1353.73C1152.72 1350.36 1154.76 1347.3 1157.34 1344.73C1159.92 1342.15 1162.98 1340.11 1166.35 1338.71C1169.72 1337.32 1173.33 1336.6 1176.97 1336.6H1194.7C1202.4 1336.6 1209.99 1338.55 1216.74 1342.25C1223.5 1345.96 1229.21 1351.3 1233.36 1357.8L1267.6 1414.9Z" stroke="#59221D" stroke-width="5" stroke-miterlimit="10" stroke-linecap="round"/>
<path d="M1794.67 1364.99V1381.78C1794.68 1385.42 1793.96 1389.03 1792.57 1392.4C1791.17 1395.77 1789.13 1398.83 1786.55 1401.4C1783.97 1403.98 1780.91 1406.02 1777.55 1407.42C1774.18 1408.81 1770.57 1409.53 1766.92 1409.53H1673.4C1659.21 1409.53 1648.39 1410.36 1639.17 1414.76C1635.16 1416.67 1631.5 1419.22 1628.32 1422.32H1625.92L1664.17 1358.45C1668.31 1351.95 1674.03 1346.6 1680.79 1342.89C1687.54 1339.19 1695.12 1337.25 1702.83 1337.25H1766.89C1770.53 1337.24 1774.15 1337.96 1777.52 1339.35C1780.89 1340.74 1783.95 1342.78 1786.53 1345.36C1789.11 1347.93 1791.16 1350.99 1792.56 1354.36C1793.96 1357.73 1794.67 1361.34 1794.67 1364.99Z" fill="white"/>
<path d="M1794.67 1365.71V1381.73C1794.68 1385.38 1793.96 1388.99 1792.57 1392.35C1791.17 1395.72 1789.13 1398.78 1786.55 1401.36C1783.97 1403.93 1780.91 1405.98 1777.55 1407.37C1774.18 1408.76 1770.57 1409.48 1766.92 1409.48H1673.4C1659.21 1409.48 1648.39 1410.31 1639.17 1414.71L1666.23 1369.55C1670.37 1363.05 1676.08 1357.7 1682.84 1353.99C1689.59 1350.29 1697.18 1348.34 1704.88 1348.34H1768.94C1774.47 1348.34 1779.88 1350 1784.46 1353.09C1789.05 1356.19 1792.61 1360.58 1794.67 1365.71Z" fill="#20CC96"/>
<path d="M1794.67 1364.99V1381.78C1794.68 1385.42 1793.96 1389.03 1792.57 1392.4C1791.17 1395.77 1789.13 1398.83 1786.55 1401.4C1783.97 1403.98 1780.91 1406.02 1777.55 1407.42C1774.18 1408.81 1770.57 1409.53 1766.92 1409.53H1673.4C1653.3 1409.53 1639.94 1411.19 1628.32 1422.32H1625.92L1664.17 1358.45C1668.31 1351.95 1674.03 1346.6 1680.79 1342.89C1687.54 1339.19 1695.12 1337.25 1702.83 1337.25H1766.89C1770.53 1337.24 1774.15 1337.96 1777.52 1339.35C1780.89 1340.74 1783.95 1342.78 1786.53 1345.36C1789.11 1347.93 1791.16 1350.99 1792.56 1354.36C1793.96 1357.73 1794.67 1361.34 1794.67 1364.99Z" stroke="#59221D" stroke-width="5" stroke-miterlimit="10" stroke-linecap="round"/>
<path d="M97.1719 2297.66H1302.56" stroke="#59221D" stroke-width="5" stroke-miterlimit="10" stroke-linecap="round"/>
<path d="M482.706 2336.67H1159.28" stroke="#59221D" stroke-width="5" stroke-miterlimit="10" stroke-linecap="round"/>
<path d="M1245.43 1796.75V2201.38C1245.43 2216.29 1239.51 2230.59 1228.96 2241.14C1218.41 2251.68 1204.11 2257.61 1189.19 2257.61H946.152C931.294 2257.52 917.075 2251.56 906.6 2241.02C896.124 2230.48 890.243 2216.23 890.241 2201.38V1796.75C890.241 1781.89 896.12 1767.63 906.596 1757.09C917.071 1746.56 931.292 1740.59 946.152 1740.5H1189.2C1204.12 1740.5 1218.42 1746.43 1228.97 1756.98C1239.51 1767.53 1245.43 1781.83 1245.43 1796.75Z" fill="white" stroke="#59221D" stroke-width="5" stroke-miterlimit="10"/>
<path d="M1019.11 1804.52V2200.47C1019.11 2230.77 994.113 2255.32 963.199 2255.52C932.296 2255.34 907.298 2230.78 907.298 2200.47V1804.52C907.298 1774.22 932.296 1749.66 963.199 1749.47C994.113 1749.66 1019.11 1774.22 1019.11 1804.52Z" fill="#98C8DB"/>
<path d="M1002.04 1796.75V2201.38C1002.14 2208.78 1000.76 2216.13 997.998 2222.99C995.231 2229.86 991.128 2236.11 985.927 2241.37C980.727 2246.64 974.531 2250.82 967.701 2253.68C960.87 2256.53 953.541 2258 946.138 2258C938.735 2258 931.406 2256.53 924.575 2253.68C917.745 2250.82 911.549 2246.64 906.349 2241.37C901.148 2236.11 897.045 2229.86 894.278 2222.99C891.512 2216.13 890.136 2208.78 890.232 2201.38V1796.75C890.136 1789.35 891.512 1782 894.278 1775.13C897.045 1768.27 901.148 1762.02 906.349 1756.75C911.549 1751.48 917.745 1747.3 924.575 1744.45C931.406 1741.59 938.735 1740.12 946.138 1740.12C953.541 1740.12 960.87 1741.59 967.701 1744.45C974.531 1747.3 980.727 1751.48 985.927 1756.75C991.128 1762.02 995.231 1768.27 997.998 1775.13C1000.76 1782 1002.14 1789.35 1002.04 1796.75Z" stroke="#59221D" stroke-width="5" stroke-miterlimit="10"/>
<path d="M1183.37 2297.66C1191.55 2297.66 1198.19 2291.03 1198.19 2282.84C1198.19 2274.66 1191.55 2268.03 1183.37 2268.03C1175.19 2268.03 1168.55 2274.66 1168.55 2282.84C1168.55 2291.03 1175.19 2297.66 1183.37 2297.66Z" stroke="#59221D" stroke-width="5" stroke-miterlimit="10" stroke-linecap="round"/>
<path d="M1002.86 2297.66C1011.04 2297.66 1017.67 2291.03 1017.67 2282.84C1017.67 2274.66 1011.04 2268.03 1002.86 2268.03C994.672 2268.03 988.038 2274.66 988.038 2282.84C988.038 2291.03 994.672 2297.66 1002.86 2297.66Z" stroke="#59221D" stroke-width="5" stroke-miterlimit="10" stroke-linecap="round"/>
<path d="M1128.94 1549.97H1017.99V1740.51H1128.94V1549.97Z" stroke="#59221D" stroke-width="5" stroke-miterlimit="10" stroke-linecap="round"/>
<path d="M1143.52 1545.48H1001.66V1554.42H1143.52V1545.48Z" fill="#59221D"/>
<path d="M1058.63 1804.52V2200.47" stroke="#59221D" stroke-width="5" stroke-miterlimit="10" stroke-linecap="round"/>
<path d="M1104.43 1804.52V2200.47" stroke="#59221D" stroke-width="5" stroke-miterlimit="10" stroke-linecap="round"/>
<path d="M1150.23 1804.52V2200.47" stroke="#59221D" stroke-width="5" stroke-miterlimit="10" stroke-linecap="round"/>
<path d="M1196.03 1804.52V2200.47" stroke="#59221D" stroke-width="5" stroke-miterlimit="10" stroke-linecap="round"/>
<path d="M1212.34 1840.91H1133.67V1882.93H1212.34V1840.91Z" fill="#F5BBBB"/>
<path d="M1125.33 1930.68L1067.98 1949.38L1086.68 2006.73L1144.03 1988.03L1125.33 1930.68Z" fill="#FFC200"/>
<path d="M1180.76 2062.89H1128.94V2097.44H1180.76V2062.89Z" fill="#98C8DB"/>
<path d="M1159.04 989.707H1098.55C1091.02 989.707 1084.91 995.814 1084.91 1003.35V1125.62C1084.91 1133.16 1091.02 1139.26 1098.55 1139.26H1159.04C1166.57 1139.26 1172.68 1133.16 1172.68 1125.62V1003.35C1172.68 995.814 1166.57 989.707 1159.04 989.707Z" fill="#98C8DB"/>
<path d="M1161.82 1162.41L1105.95 1173.83C1098.44 1163.31 1090.1 1153.42 1080.99 1144.25C1060.94 1123.8 1039.44 1108.8 1024.49 1103.56L1035.43 1057.42C1036.61 1052.46 1039.38 1048.02 1043.32 1044.78C1047.26 1041.54 1052.16 1039.68 1057.25 1039.49L1084.93 1038.48C1084.93 1041.18 1085.47 1043.86 1086.52 1046.35C1087.57 1048.84 1089.1 1051.1 1091.03 1052.99C1092.96 1054.88 1095.25 1056.36 1097.76 1057.36C1100.28 1058.35 1102.96 1058.84 1105.66 1058.78L1152.79 1057.85C1158.1 1057.74 1163.16 1055.56 1166.88 1051.77C1170.6 1047.98 1172.68 1042.88 1172.69 1037.57V1029.35C1176.01 1029.52 1179.16 1030.93 1181.5 1033.3C1183.84 1035.67 1185.21 1038.83 1185.34 1042.16L1188.72 1125.02C1189.06 1133.36 1186.6 1141.58 1181.73 1148.36C1176.85 1155.14 1169.84 1160.08 1161.82 1162.41Z" fill="#A74602"/>
<path d="M1184.09 1060.18C1184.79 1077.36 1164.97 1084.09 1145.59 1086.31" stroke="#59221D" stroke-width="5" stroke-miterlimit="10" stroke-linecap="round"/>
<path d="M1184.86 1085.05C1185.56 1102.23 1165.74 1108.95 1146.36 1111.17" stroke="#59221D" stroke-width="5" stroke-miterlimit="10" stroke-linecap="round"/>
<path d="M1186.95 1109.3C1187.65 1126.48 1167.83 1132.28 1148.45 1134.49" stroke="#59221D" stroke-width="5" stroke-miterlimit="10" stroke-linecap="round"/>
<path d="M1156.07 1011.91C1158.88 1011.91 1161.16 1009.63 1161.16 1006.82C1161.16 1004 1158.88 1001.72 1156.07 1001.72C1153.26 1001.72 1150.97 1004 1150.97 1006.82C1150.97 1009.63 1153.26 1011.91 1156.07 1011.91Z" stroke="#59221D" stroke-width="4" stroke-miterlimit="10" stroke-linecap="round"/>
<path d="M346.941 1584.28L544.774 1637.2L347.398 2183.26H138.508L346.941 1584.28Z" fill="#A74602"/>
<path d="M346.941 1584.28L544.774 1637.2L525.683 1690.01L328.522 1637.2L346.941 1584.28Z" fill="#59221D"/>
<path d="M783.86 2183.26H582.9L563.744 1637.2H748.664L783.86 2183.26Z" fill="#A74602"/>
<path d="M749.569 1651.14L565.984 1700.82H565.974L563.744 1637.2H748.673L749.569 1651.14Z" fill="#59221D"/>
<path d="M353.333 2262.51C356.474 2263.72 359.173 2265.86 361.078 2268.64C362.983 2271.42 364.004 2274.71 364.007 2278.08V2297.67H143.341C138.489 2297.67 133.707 2296.51 129.395 2294.28C125.084 2292.05 121.367 2288.83 118.556 2284.87C115.745 2280.92 113.921 2276.35 113.236 2271.55C112.552 2266.74 113.026 2261.84 114.621 2257.26L140.57 2182.62L345.093 2183.56L335.249 2212.31C332.007 2221.48 332.036 2231.48 335.333 2240.63C338.629 2249.77 344.989 2257.5 353.333 2262.49V2262.51Z" fill="white" stroke="#59221D" stroke-width="5" stroke-miterlimit="10"/>
<path d="M364.026 2297.66H143.341C138.489 2297.66 133.707 2296.5 129.395 2294.27C125.084 2292.04 121.367 2288.82 118.556 2284.86C115.745 2280.91 113.921 2276.34 113.236 2271.54C112.552 2266.73 113.026 2261.84 114.621 2257.25L120.014 2241.74C119.115 2246.16 119.21 2250.72 120.291 2255.1C121.373 2259.48 123.414 2263.56 126.267 2267.05C129.12 2270.55 132.713 2273.36 136.788 2275.29C140.862 2277.23 145.316 2278.23 149.826 2278.24H363.998L364.026 2297.66Z" fill="#FFC200" stroke="#59221D" stroke-width="5" stroke-miterlimit="10"/>
<path d="M274.962 2183.26L270.437 2199.02C269.388 2202.65 269.198 2206.47 269.882 2210.19C270.566 2213.91 272.105 2217.42 274.377 2220.44C276.649 2223.46 279.593 2225.91 282.975 2227.6C286.358 2229.29 290.086 2230.17 293.867 2230.17H330.257L345.121 2183.62L274.962 2183.26Z" fill="#FFC200" stroke="#59221D" stroke-width="5" stroke-miterlimit="10"/>
<path d="M261.983 2183.26L256.497 2202.3C255.222 2206.7 254.988 2211.34 255.815 2215.85C256.642 2220.36 258.506 2224.61 261.26 2228.27C264.014 2231.94 267.583 2234.91 271.684 2236.96C275.786 2239 280.307 2240.07 284.891 2240.07H335.417" stroke="#59221D" stroke-width="5" stroke-miterlimit="10"/>
<path d="M825.466 2297.66H620.653C611.596 2297.66 602.892 2294.15 596.376 2287.86C589.86 2281.57 586.042 2272.99 585.728 2263.94L584.795 2182.73L585.056 2182.66H782.04L786.351 2225.35C787.067 2232.39 789.604 2239.13 793.714 2244.9C797.823 2250.68 803.364 2255.28 809.79 2258.26C814.296 2260.35 818.125 2263.66 820.841 2267.82C823.556 2271.98 825.049 2276.82 825.149 2281.78L825.466 2297.66Z" fill="white" stroke="#59221D" stroke-width="5" stroke-miterlimit="10"/>
<path d="M825.466 2297.66H620.653C611.596 2297.66 602.892 2294.15 596.376 2287.86C589.86 2281.57 586.042 2272.99 585.728 2263.94L585.504 2244.84H585.747C586.143 2253.83 589.994 2262.32 596.497 2268.54C603 2274.76 611.653 2278.23 620.653 2278.24H824.85C825.037 2279.41 825.143 2280.59 825.168 2281.78L825.466 2297.66Z" fill="#FFC200" stroke="#59221D" stroke-width="5" stroke-miterlimit="10"/>
<path d="M787.135 2230.14H765.543C757.595 2230.14 749.971 2226.98 744.351 2221.36C738.73 2215.74 735.573 2208.12 735.573 2200.17V2182.66H782.04L786.351 2225.35C786.516 2226.96 786.778 2228.56 787.135 2230.14Z" fill="#FFC200" stroke="#59221D" stroke-width="5" stroke-miterlimit="10"/>
<path d="M790.83 2240.07H759.721C750.713 2240.07 742.074 2236.49 735.704 2230.12C729.335 2223.75 725.756 2215.11 725.756 2206.11V2182.7" stroke="#59221D" stroke-width="5" stroke-miterlimit="10"/>
<path d="M769.957 1637.2H563.744L562.074 1589.34L544.775 1637.2L346.96 1584.28L450.682 1286.29C510.558 1323.13 726.092 1286.29 726.092 1286.29H728.892L769.957 1637.2Z" fill="#F5BBBB"/>
<path d="M740.854 1388.95V1637.16H735.302V1341.57L740.854 1388.95Z" fill="white"/>
<path d="M711.396 1288.61V1637.16H705.844V1289.43L711.396 1288.61Z" fill="white"/>
<path d="M681.939 1292.74V1637.16H676.34V1293.45L681.939 1292.74Z" fill="white"/>
<path d="M652.472 1296.25V1637.16H646.929V1296.83L652.472 1296.25Z" fill="white"/>
<path d="M623.014 1299.12V1637.16H617.416V1299.63C619.313 1299.46 621.179 1299.29 623.014 1299.12Z" fill="white"/>
<path d="M593.556 1301.25V1637.12H587.958V1301.53C589.843 1301.5 591.699 1301.37 593.556 1301.25Z" fill="white"/>
<path d="M564.089 1302.48V1583.76L558.538 1599.12V1302.59L564.089 1302.48Z" fill="white"/>
<path d="M534.66 1302.5V1634.49L529.061 1632.99V1302.32C530.927 1302.43 532.794 1302.43 534.66 1302.5Z" fill="white"/>
<path d="M505.165 1300.74V1626.6L499.613 1625.12V1300.13C501.436 1300.36 503.286 1300.56 505.165 1300.74Z" fill="white"/>
<path d="M475.698 1295.96V1618.71L470.156 1617.23V1294.49C471.947 1294.97 473.804 1295.5 475.698 1295.96Z" fill="white"/>
<path d="M446.25 1298.9V1610.84L440.698 1609.35V1314.87L446.25 1298.9Z" fill="white"/>
<path d="M416.783 1383.58V1602.96L411.231 1601.47V1399.54L416.783 1383.58Z" fill="white"/>
<path d="M387.325 1468.24V1595.08L381.773 1593.59V1484.2L387.325 1468.24Z" fill="white"/>
<path d="M729.741 1294.03C540.8 1344.81 432.459 1339.89 432.459 1339.89L450.682 1286.29C510.558 1323.13 726.092 1286.29 726.092 1286.29H728.892L729.741 1294.03Z" fill="#59221D"/>
<path d="M566.525 1637.2L554.74 1420.78L514.178 1386.7" stroke="#59221D" stroke-width="6" stroke-miterlimit="10"/>
<path d="M681.939 1423.28L642.73 1442.71L603.531 1423.28V1355.38H681.939V1423.28Z" fill="#F5BBBB" stroke="#592D29" stroke-width="6" stroke-linejoin="round"/>
<path d="M482.034 1423.28L442.825 1442.71L403.626 1423.28L427.691 1355.38H482.034V1423.28Z" fill="#F5BBBB" stroke="#592D29" stroke-width="6" stroke-linejoin="round"/>
<path d="M1118.51 1213.55C1118.37 1213.71 1118.22 1213.87 1118.06 1214.03L992.554 1351.07C974.786 1370.46 951.927 1384.48 926.58 1391.53C901.233 1398.57 874.417 1398.36 849.185 1390.91C823.954 1383.46 801.321 1369.08 783.864 1349.4C766.408 1329.72 754.829 1305.54 750.446 1279.6L726.046 1135.23V1286.3C726.046 1286.3 510.502 1323.14 450.635 1286.3L365.286 1530.38C365.29 1530.4 365.29 1530.43 365.286 1530.45C360.788 1542.14 323.39 1540.25 281.56 1524.38C239.729 1508.51 208.228 1486.79 212.511 1475.05C212.507 1475.03 212.507 1475 212.511 1474.98C212.515 1474.95 212.515 1474.91 212.511 1474.88L379.879 1035.6C388.949 1011.8 405.039 991.32 426.015 976.872C446.992 962.425 471.865 954.693 497.336 954.702H748.337C776.998 954.702 804.797 964.499 827.124 982.468C849.45 1000.44 864.962 1025.5 871.085 1053.49L905.675 1202.43L1007.63 1103.77C1016.77 1094.8 1050.56 1113.2 1080.98 1144.25C1110.94 1174.77 1126.67 1204.04 1118.51 1213.55Z" fill="white" stroke="#59221D" stroke-width="5" stroke-miterlimit="10"/>
<path d="M365.286 1530.38C365.29 1530.4 365.29 1530.43 365.286 1530.45C360.788 1542.14 323.39 1540.25 281.56 1524.38C239.729 1508.51 208.228 1486.79 212.511 1475.05C212.507 1475.03 212.507 1475 212.511 1474.98C212.515 1474.95 212.515 1474.91 212.511 1474.88C217.176 1463.28 255.816 1466.13 297.571 1481.96C339.327 1497.79 369.596 1518.66 365.286 1530.38Z" fill="white" stroke="#59221D" stroke-width="5" stroke-miterlimit="10"/>
<path d="M71.6895 1643.23L5.89921 1832.45C-5.67884 1865.75 11.9334 1902.13 45.2371 1913.71L150.549 1950.32C183.853 1961.89 220.237 1944.28 231.815 1910.98L297.605 1721.76C309.183 1688.46 291.571 1652.08 258.267 1640.51L152.955 1603.9C119.651 1592.32 83.2675 1609.93 71.6895 1643.23Z" stroke="#59221D" stroke-width="5" stroke-miterlimit="10" stroke-linecap="round"/>
<path d="M280.543 1770.84L231.807 1911.01C229.055 1918.93 224.769 1926.22 219.195 1932.48C213.621 1938.75 206.868 1943.85 199.322 1947.5C191.776 1951.15 183.585 1953.28 175.215 1953.77C166.846 1954.25 158.463 1953.09 150.545 1950.33L45.2269 1913.72C29.2359 1908.16 16.1085 1896.48 8.73141 1881.24C1.3543 1866 0.331486 1848.46 5.88789 1832.47L54.6231 1692.3C61.4046 1672.8 75.6522 1656.8 94.2331 1647.81C112.814 1638.81 134.207 1637.56 153.708 1644.34L232.591 1671.77C242.246 1675.12 251.146 1680.35 258.781 1687.14C266.416 1693.94 272.638 1702.17 277.091 1711.37C281.544 1720.57 284.14 1730.56 284.733 1740.76C285.325 1750.96 283.901 1761.18 280.543 1770.84Z" stroke="#59221D" stroke-width="5" stroke-miterlimit="10" stroke-linecap="round"/>
<path d="M100.549 1766.81L197.823 1800.63C200.862 1801.68 203.357 1803.9 204.758 1806.8C206.16 1809.69 206.354 1813.03 205.298 1816.06L200.552 1829.71L80.3622 1787.94L85.1083 1774.29C86.1648 1771.25 88.385 1768.75 91.2807 1767.35C94.1764 1765.95 97.5103 1765.76 100.549 1766.81Z" stroke="#59221D" stroke-width="5" stroke-miterlimit="10" stroke-linecap="round"/>
<path d="M92.4033 1801.82L204.334 1840.73L188.451 1886.41C186.926 1890.8 183.722 1894.4 179.543 1896.42C175.365 1898.44 170.554 1898.72 166.168 1897.2L87.3055 1869.79C82.9204 1868.26 79.3205 1865.06 77.2977 1860.88C75.2749 1856.7 74.995 1851.89 76.5195 1847.51L92.4094 1801.81L92.4033 1801.82Z" fill="#98C8DB"/>
<path d="M84.5002 1789.41L196.431 1828.32L180.541 1874.02C179.017 1878.41 175.813 1882 171.634 1884.03C167.455 1886.05 162.644 1886.33 158.259 1884.81L79.3963 1857.39C75.0112 1855.87 71.4113 1852.66 69.3885 1848.49C67.3658 1844.31 67.0858 1839.5 68.6103 1835.11L84.5002 1789.41Z" stroke="#59221D" stroke-width="5" stroke-miterlimit="10" stroke-linecap="round"/>
<path d="M298.449 1560.36L271.324 1645.57L162.469 1606.93L178.948 1555.15L298.449 1560.36Z" stroke="#59221D" stroke-width="5" stroke-miterlimit="10" stroke-linecap="round"/>
<path d="M347.529 1509.67L345.355 1515.62L337.265 1537.76L320.05 1585C318.237 1590.14 314.874 1594.59 310.425 1597.74C305.977 1600.89 300.661 1602.58 295.211 1602.58H194.26C190.036 1602.57 185.874 1601.56 182.125 1599.61C178.376 1597.66 175.151 1594.84 172.72 1591.39C170.29 1587.93 168.726 1583.95 168.16 1579.76C167.593 1575.57 168.042 1571.31 169.468 1567.34L181.719 1533.03C183.061 1529.29 185.527 1526.05 188.779 1523.77C192.031 1521.48 195.91 1520.25 199.886 1520.25H220.694L228.439 1497.27L229.503 1494.11L237.369 1470.78C253.11 1471.72 274.925 1476.49 296.694 1484.78C316.914 1492.43 335.306 1501.27 347.529 1509.67Z" fill="#A74602"/>
<path d="M213.416 1599.12C209.376 1599.12 205.395 1598.14 201.81 1596.28C198.224 1594.42 195.138 1591.73 192.812 1588.43C190.487 1585.12 188.99 1581.31 188.448 1577.31C187.905 1573.3 188.334 1569.23 189.697 1565.43L200.53 1535.26C201.815 1531.69 204.173 1528.59 207.283 1526.41C210.393 1524.22 214.103 1523.05 217.904 1523.05H292.15C293.587 1523.05 295.002 1523.39 296.278 1524.05C297.553 1524.71 298.652 1525.67 299.481 1526.84C300.31 1528.02 300.846 1529.37 301.043 1530.79C301.24 1532.22 301.093 1533.67 300.613 1535.02L291.077 1563.94L298.458 1563.69" stroke="#59221D" stroke-width="5" stroke-miterlimit="10" stroke-linecap="round"/>
<path d="M247.418 1599.12C243.379 1599.11 239.399 1598.14 235.814 1596.28C232.23 1594.42 229.145 1591.72 226.821 1588.42C224.496 1585.12 223 1581.31 222.458 1577.3C221.917 1573.3 222.345 1569.23 223.708 1565.43L234.532 1535.26C235.816 1531.68 238.178 1528.58 241.293 1526.39C244.409 1524.2 248.126 1523.03 251.934 1523.03" stroke="#59221D" stroke-width="5" stroke-miterlimit="10" stroke-linecap="round"/>
<path d="M285.189 1600.98C267.75 1600.98 251.831 1581.82 257.71 1565.41L268.543 1535.24C269.828 1531.67 272.186 1528.57 275.296 1526.39C278.406 1524.2 282.116 1523.03 285.917 1523.03" stroke="#59221D" stroke-width="5" stroke-miterlimit="10" stroke-linecap="round"/>
<path d="M229.232 1494.91L237.406 1469.82C253.203 1470.68 274.515 1475.42 296.694 1483.82C317.362 1491.66 335.576 1500.61 347.79 1509.14L345.793 1514.48L229.232 1494.91Z" fill="#59221D"/>
<path d="M690.336 907.213V956.549C690.336 956.549 645.044 972.512 613.926 956.549L649.047 892.855L651.847 887.789C652.229 888.255 665.292 903.565 690.336 907.213Z" fill="#A74602"/>
<path d="M651.846 887.77C651.846 887.77 664.91 903.509 690.336 907.213V942.666L648.991 892.78L651.846 887.77Z" fill="#59221D"/>
<path d="M450.626 1282.59L159.502 1072.6C159.502 1072.6 155.658 953.498 280.486 936.275C338.217 928.289 358.446 957.473 404.503 950.718C451.298 943.861 432.001 872.05 500.929 856.488C547.033 846.057 560.376 879.159 593.706 863.242C616.426 852.401 629.322 812.293 671.087 812.293C702.103 812.293 706.693 836.55 706.693 836.55C706.693 836.55 693.397 852.737 651.846 854.314V885.923C651.846 885.923 651.846 939.886 604.679 961.176C570.304 976.682 587.529 1001.48 598.922 1049.27C613.926 1112.21 557.063 1158.26 501.582 1170.55C446.558 1182.78 434.073 1237.12 450.626 1282.59Z" fill="#FFC200"/>
<path d="M656.895 854.053C693.901 851.478 706.348 836.988 706.722 836.522L719.953 868.598C720.256 869.333 720.401 870.124 720.378 870.919C720.356 871.714 720.166 872.495 719.822 873.212C719.478 873.929 718.987 874.566 718.381 875.081C717.775 875.596 717.067 875.977 716.304 876.201L713.011 877.134L714.877 889.02C715.362 892.142 714.801 895.337 713.282 898.108C711.764 900.878 709.372 903.069 706.479 904.34C700.892 906.88 694.706 907.807 688.62 907.017C663.202 903.285 651.865 887.77 651.865 887.77H647.097C642.643 887.77 638.371 886.001 635.221 882.851C632.071 879.702 630.302 875.431 630.302 870.977C630.302 866.523 632.071 862.251 635.221 859.102C638.371 855.952 642.643 854.183 647.097 854.183L656.895 854.053Z" fill="#A74602"/>
<path d="M644.942 863.457C647.765 863.457 650.473 864.578 652.47 866.575C654.467 868.571 655.588 871.279 655.588 874.102" stroke="#59221D" stroke-width="5" stroke-miterlimit="10" stroke-linecap="round"/>
<path d="M684.131 857.952C684.131 857.952 690.962 852.886 698.632 852.756" stroke="#FFC200" stroke-width="4" stroke-miterlimit="10" stroke-linecap="round"/>
<path d="M694.853 870.445C696.296 870.445 697.465 868.373 697.465 865.817C697.465 863.262 696.296 861.19 694.853 861.19C693.41 861.19 692.24 863.262 692.24 865.817C692.24 868.373 693.41 870.445 694.853 870.445Z" fill="#59221D"/>
</g>
<defs>
<clipPath id="clip0_93_1010">
<rect width="3656" height="2339" fill="white"/>
</clipPath>
</defs>
</svg>
