<svg width="4101" height="2343" viewBox="0 0 4101 2343" fill="none" xmlns="http://www.w3.org/2000/svg">
<g clip-path="url(#clip0_92_695)">
<path d="M4000.79 2272.49C4041.93 2034.61 3828.33 1839.05 3595.94 1847.34H3583.58C3491.25 1847.34 3404.58 1805.52 3350.58 1734.93L3316.91 1690.93C3229.81 1577.08 3094.33 1509.63 2945.43 1509.63C2863.22 1509.63 2804.15 1528.47 2758.78 1557.86C2675.9 1611.55 2564.63 1797.22 2451.73 1801.96C2285.24 1808.96 2176.21 1567.75 1759.45 1991.43" stroke="#59221D" stroke-width="5" stroke-miterlimit="10" stroke-linecap="round"/>
<path d="M136.28 2274.9C-76.5499 2274.9 -37.7199 1947.27 269.1 2084.39C531.28 2201.57 367.22 1697.15 702.37 1814.98C784.66 1843.91 979.94 1991.79 1089.58 1992.57C1133.91 1992.88 1445.17 1825.57 1709.58 1964.57C1962.04 2097.27 2200.85 2274.89 2200.85 2274.89" stroke="#59221D" stroke-width="5" stroke-miterlimit="10" stroke-linecap="round"/>
<path d="M4039.06 2274.79H3557C3567.49 2175.36 3671.38 2097.28 3798 2097.28C3924.62 2097.28 4028.57 2175.36 4039.06 2274.79Z" fill="#7EBAD2"/>
<path d="M3743 2274.79L3685 2197.57H3634.68L3567.75 2233.22C3567.55 2233.32 3567.35 2233.4 3567.13 2233.45C3568.07 2231.04 3569.06 2228.66 3570.13 2226.29L3624.06 2197.57H3586.27C3587.43 2195.88 3588.62 2194.22 3589.84 2192.57H3681.27L3643.4 2142.15C3644.78 2141.22 3646.18 2140.3 3647.6 2139.41L3749.6 2274.79H3743Z" fill="white"/>
<path d="M3924.57 2273L4007.42 2194.16C4008.41 2195.53 4009.37 2196.91 4010.32 2198.3L3929.92 2274.81L3924.57 2273Z" fill="white"/>
<path d="M3809.3 2273.7V2167.19L3765.57 2099.86C3765.41 2099.61 3765.3 2099.34 3765.24 2099.05C3767.04 2098.85 3768.85 2098.67 3770.66 2098.51L3809.3 2158.01V2097.49C3810.97 2097.55 3812.64 2097.62 3814.3 2097.71V2239.79L3906.3 2117.79C3907.9 2118.43 3909.49 2119.08 3911.07 2119.79L3858.07 2190.15L3967.07 2152.56C3968.62 2153.78 3970.15 2155.01 3971.66 2156.26L3971.52 2156.32L3852.68 2197.32L3814.34 2248.19V2273.78L3809.3 2273.7Z" fill="white"/>
<path d="M3461.39 2191.1L3475.38 2175.57L3490.91 2189.55C3498.75 2196.61 3503.46 2206.5 3504.01 2217.03C3504.56 2227.56 3500.9 2237.88 3493.84 2245.72L3479.85 2261.25L3464.29 2247.23C3456.47 2240.17 3451.77 2230.29 3451.22 2219.76C3450.68 2209.24 3454.34 2198.93 3461.39 2191.1Z" fill="#A74602"/>
<path d="M3404.54 2202.3V2186.3H3420.54C3435.68 2186.3 3450.2 2192.31 3460.91 2203.02C3471.62 2213.73 3477.63 2228.25 3477.63 2243.39V2259.39H3461.63C3446.49 2259.39 3431.97 2253.38 3421.26 2242.67C3410.55 2231.96 3404.54 2217.44 3404.54 2202.3Z" fill="white" stroke="#59221D" stroke-width="5" stroke-miterlimit="10"/>
<path d="M321.915 2070.02L318.311 2069.81C307.369 2069.16 297.135 2064.18 289.86 2055.98C282.586 2047.78 278.866 2037.03 279.52 2026.09L279.735 2022.48L283.339 2022.7C294.281 2023.35 304.515 2028.33 311.79 2036.53C319.064 2044.73 322.784 2055.48 322.13 2066.42L321.915 2070.02Z" fill="#FFC200"/>
<path d="M339.597 2066.24L337.47 2062.44C334.271 2056.74 332.227 2050.46 331.456 2043.96C330.685 2037.47 331.201 2030.88 332.975 2024.59C334.749 2018.29 337.746 2012.41 341.796 2007.27C345.845 2002.13 350.866 1997.85 356.574 1994.65L360.368 1992.52L362.495 1996.32C368.954 2007.83 370.572 2021.45 366.994 2034.16C363.417 2046.87 354.936 2057.64 343.418 2064.1L339.623 2066.22L339.597 2066.24Z" stroke="#59221D" stroke-width="5" stroke-miterlimit="10" stroke-linecap="round"/>
<path d="M3465.79 1765.97L3467.88 1751.2L3482.65 1753.29C3493.09 1754.77 3502.52 1760.33 3508.86 1768.76C3515.2 1777.19 3517.93 1787.79 3516.45 1798.23L3514.37 1813L3499.59 1810.91C3489.15 1809.43 3479.72 1803.87 3473.39 1795.44C3467.05 1787.01 3464.31 1776.41 3465.79 1765.97Z" fill="#FFC200"/>
<path d="M3581.33 1734.94H3621.61V1775.22C3621.61 1785.77 3617.42 1795.88 3609.96 1803.34C3602.5 1810.8 3592.39 1814.99 3581.84 1814.99H3541.56V1774.71C3541.56 1764.16 3545.75 1754.05 3553.21 1746.59C3560.67 1739.13 3570.78 1734.94 3581.33 1734.94Z" stroke="#59221D" stroke-width="5" stroke-miterlimit="10" stroke-linecap="round"/>
<path d="M3541.56 1814.98L3621.61 1734.94" stroke="#59221D" stroke-width="5" stroke-miterlimit="10" stroke-linecap="round"/>
<path d="M3589.81 1770.22H3621.61" stroke="#59221D" stroke-width="5" stroke-miterlimit="10" stroke-linecap="round"/>
<path d="M3563.36 1740.67V1792.84" stroke="#59221D" stroke-width="5" stroke-miterlimit="10" stroke-linecap="round"/>
<path d="M198.87 2162.67H220.75V2184.55C220.747 2195.09 216.559 2205.2 209.105 2212.66C201.652 2220.11 191.543 2224.3 181 2224.31H159.1V2202.43C159.103 2191.88 163.294 2181.77 170.752 2174.31C178.21 2166.86 188.324 2162.67 198.87 2162.67Z" stroke="#59221D" stroke-width="5" stroke-miterlimit="10" stroke-linecap="round"/>
<path d="M159.1 2224.31L220.74 2162.67" stroke="#59221D" stroke-width="5" stroke-miterlimit="10" stroke-linecap="round"/>
<path d="M194.4 2189.84H219.65" stroke="#59221D" stroke-width="5" stroke-miterlimit="10" stroke-linecap="round"/>
<path d="M175.88 2171.43V2207.26" stroke="#59221D" stroke-width="5" stroke-miterlimit="10" stroke-linecap="round"/>
<path d="M1227.83 479.35L1722.55 141C1779.4 102.12 1851.42 106.9 1903.9 153L2823.59 961.68H126.47L998.13 438C1042.48 411.35 1095.23 409.75 1140.77 433.67L1227.83 479.35Z" stroke="#7EBAD2" stroke-width="5" stroke-miterlimit="10"/>
<path d="M1233.17 478.53L1032.17 612.53C1031.13 613.224 1029.9 613.561 1028.65 613.49C1027.41 613.419 1026.22 612.944 1025.27 612.137C1024.31 611.33 1023.65 610.235 1023.38 609.017C1023.1 607.8 1023.24 606.527 1023.75 605.39L1104.84 419.51L1233.17 478.53Z" fill="#7EBAD2"/>
<path d="M3861.29 961.69C3708.8 966.11 3471.5 1000.9 3331.73 1062.52L3130.39 1151.3C2984.82 1215.49 2827.48 1248.63 2668.39 1248.63H1863.51C1763.52 1248.63 1663.95 1261.53 1567.26 1287.03C1470.57 1312.53 1370.99 1325.44 1271 1325.44H582.6C486.556 1325.45 392.087 1301.04 308.067 1254.51C224.047 1207.98 153.234 1140.85 102.28 1059.44L41.1201 961.69H3861.29Z" stroke="#59221D" stroke-width="5" stroke-miterlimit="10" stroke-linecap="round"/>
<path d="M254 1021.64C258.31 1017.35 264.144 1014.94 270.225 1014.94C276.306 1014.94 282.14 1017.35 286.45 1021.64C290.76 1025.93 296.594 1028.34 302.675 1028.34C308.756 1028.34 314.59 1025.93 318.9 1021.64C323.21 1017.35 329.044 1014.94 335.125 1014.94C341.206 1014.94 347.04 1017.35 351.35 1021.64L351.51 1021.79C355.82 1026.08 361.654 1028.49 367.735 1028.49C373.816 1028.49 379.65 1026.08 383.96 1021.79L384.43 1021.33C386.56 1019.2 389.089 1017.51 391.873 1016.35C394.657 1015.2 397.641 1014.6 400.655 1014.6C403.669 1014.6 406.653 1015.2 409.437 1016.35C412.221 1017.51 414.75 1019.2 416.88 1021.33L417.35 1021.79C421.66 1026.08 427.494 1028.49 433.575 1028.49C439.656 1028.49 445.49 1026.08 449.8 1021.79L450.11 1021.48C454.42 1017.19 460.254 1014.78 466.335 1014.78C472.416 1014.78 478.25 1017.19 482.56 1021.48L482.87 1021.79C487.181 1026.08 493.016 1028.49 499.1 1028.49C505.184 1028.49 511.019 1026.08 515.33 1021.79L515.48 1021.64C519.79 1017.35 525.624 1014.94 531.705 1014.94C537.786 1014.94 543.62 1017.35 547.93 1021.64" stroke="#59221D" stroke-width="5" stroke-miterlimit="10" stroke-linecap="round"/>
<path d="M548.11 1021.79C552.42 1026.08 558.254 1028.49 564.335 1028.49C570.416 1028.49 576.25 1026.08 580.56 1021.79L580.72 1021.64C585.03 1017.35 590.864 1014.94 596.945 1014.94C603.026 1014.94 608.86 1017.35 613.17 1021.64" stroke="#59221D" stroke-width="5" stroke-miterlimit="10" stroke-linecap="round"/>
<path d="M351.34 1051.26L351.5 1051.42C355.81 1055.71 361.644 1058.12 367.725 1058.12C373.806 1058.12 379.64 1055.71 383.95 1051.42L384.42 1050.95C388.73 1046.66 394.564 1044.25 400.645 1044.25C406.726 1044.25 412.56 1046.66 416.87 1050.95L417.34 1051.42C421.65 1055.71 427.484 1058.12 433.565 1058.12C439.646 1058.12 445.48 1055.71 449.79 1051.42L450.1 1051.1C454.41 1046.81 460.244 1044.4 466.325 1044.4C472.406 1044.4 478.24 1046.81 482.55 1051.1L482.86 1051.42C487.171 1055.71 493.006 1058.12 499.09 1058.12C505.174 1058.12 511.01 1055.71 515.32 1051.42L515.47 1051.26C519.78 1046.97 525.614 1044.56 531.695 1044.56C537.776 1044.56 543.61 1046.97 547.92 1051.26" stroke="#59221D" stroke-width="5" stroke-miterlimit="10" stroke-linecap="round"/>
<path d="M2608 1087.92C2612.31 1092.21 2618.14 1094.62 2624.23 1094.62C2630.31 1094.62 2636.14 1092.21 2640.45 1087.92C2644.76 1083.63 2650.6 1081.22 2656.68 1081.22C2662.76 1081.22 2668.6 1083.63 2672.91 1087.92L2673.06 1088.08C2677.37 1092.37 2683.2 1094.78 2689.28 1094.78C2695.37 1094.78 2701.2 1092.37 2705.51 1088.08L2705.98 1087.61C2710.29 1083.32 2716.12 1080.91 2722.21 1080.91C2728.29 1080.91 2734.12 1083.32 2738.43 1087.61L2738.9 1088.08C2743.21 1092.37 2749.04 1094.78 2755.12 1094.78C2761.21 1094.78 2767.04 1092.37 2771.35 1088.08L2771.66 1087.76C2775.97 1083.47 2781.8 1081.06 2787.89 1081.06C2793.97 1081.06 2799.8 1083.47 2804.11 1087.76L2804.43 1088.08C2808.74 1092.37 2814.57 1094.78 2820.66 1094.78C2826.74 1094.78 2832.57 1092.37 2836.88 1088.08L2837.03 1087.92C2841.34 1083.63 2847.18 1081.22 2853.26 1081.22C2859.34 1081.22 2865.18 1083.63 2869.49 1087.92" stroke="#59221D" stroke-width="5" stroke-miterlimit="10" stroke-linecap="round"/>
<path d="M2672.87 1117.54L2673.02 1117.7C2677.33 1121.99 2683.16 1124.4 2689.25 1124.4C2695.33 1124.4 2701.16 1121.99 2705.47 1117.7L2705.94 1117.23C2710.25 1112.94 2716.08 1110.53 2722.17 1110.53C2728.25 1110.53 2734.08 1112.94 2738.39 1117.23L2738.86 1117.7C2743.17 1121.99 2749 1124.4 2755.08 1124.4C2761.17 1124.4 2767 1121.99 2771.31 1117.7L2771.62 1117.39C2775.93 1113.1 2781.76 1110.69 2787.84 1110.69C2793.93 1110.69 2799.76 1113.1 2804.07 1117.39L2804.39 1117.7C2808.7 1121.99 2814.53 1124.4 2820.61 1124.4C2826.7 1124.4 2832.53 1121.99 2836.84 1117.7L2836.99 1117.54" stroke="#59221D" stroke-width="5" stroke-miterlimit="10" stroke-linecap="round"/>
<path d="M1275.25 583.7V865.53" stroke="#59221D" stroke-width="5" stroke-miterlimit="10" stroke-linecap="round"/>
<path d="M1235.27 623.57V865.53" stroke="#59221D" stroke-width="5" stroke-miterlimit="10" stroke-linecap="round"/>
<path d="M1195.29 651.48V865.53" stroke="#59221D" stroke-width="5" stroke-miterlimit="10" stroke-linecap="round"/>
<path d="M1155.32 672.41V865.53" stroke="#59221D" stroke-width="5" stroke-miterlimit="10" stroke-linecap="round"/>
<path d="M1115.34 689.36V865.53" stroke="#59221D" stroke-width="5" stroke-miterlimit="10" stroke-linecap="round"/>
<path d="M1075.36 701.32V865.53" stroke="#59221D" stroke-width="5" stroke-miterlimit="10" stroke-linecap="round"/>
<path d="M1035.39 710.29V865.53" stroke="#59221D" stroke-width="5" stroke-miterlimit="10" stroke-linecap="round"/>
<path d="M1342.39 574.57V865.53" stroke="#59221D" stroke-width="5" stroke-miterlimit="10" stroke-linecap="round"/>
<path d="M1382.36 608.2V864.53" stroke="#59221D" stroke-width="5" stroke-miterlimit="10" stroke-linecap="round"/>
<path d="M1422.34 633.76V864.53" stroke="#59221D" stroke-width="5" stroke-miterlimit="10" stroke-linecap="round"/>
<path d="M1462.32 654.94V864.53" stroke="#59221D" stroke-width="5" stroke-miterlimit="10" stroke-linecap="round"/>
<path d="M1502.29 672.89V864.53" stroke="#59221D" stroke-width="5" stroke-miterlimit="10" stroke-linecap="round"/>
<path d="M1542.27 687.56V864.53" stroke="#59221D" stroke-width="5" stroke-miterlimit="10" stroke-linecap="round"/>
<path d="M1582.25 700.07V864.53" stroke="#59221D" stroke-width="5" stroke-miterlimit="10" stroke-linecap="round"/>
<path d="M1622.29 710.89V864.53" stroke="#59221D" stroke-width="5" stroke-miterlimit="10" stroke-linecap="round"/>
<path d="M1662.27 718.56V864.53" stroke="#59221D" stroke-width="5" stroke-miterlimit="10" stroke-linecap="round"/>
<path d="M1702.25 727.07V864.53" stroke="#59221D" stroke-width="5" stroke-miterlimit="10" stroke-linecap="round"/>
<path d="M1742.29 732.89V864.53" stroke="#59221D" stroke-width="5" stroke-miterlimit="10" stroke-linecap="round"/>
<path d="M1782.27 738.56V864.53" stroke="#59221D" stroke-width="5" stroke-miterlimit="10" stroke-linecap="round"/>
<path d="M1822.25 742.07V864.53" stroke="#59221D" stroke-width="5" stroke-miterlimit="10" stroke-linecap="round"/>
<path d="M1862.29 744.89V864.53" stroke="#59221D" stroke-width="5" stroke-miterlimit="10" stroke-linecap="round"/>
<path d="M1902.27 747.56V864.53" stroke="#59221D" stroke-width="5" stroke-miterlimit="10" stroke-linecap="round"/>
<path d="M1942.25 748.07V864.53" stroke="#59221D" stroke-width="5" stroke-miterlimit="10" stroke-linecap="round"/>
<path d="M995.41 718.26V865.53" stroke="#59221D" stroke-width="5" stroke-miterlimit="10" stroke-linecap="round"/>
<path d="M955.43 722.25V865.53" stroke="#59221D" stroke-width="5" stroke-miterlimit="10" stroke-linecap="round"/>
<path d="M915.46 725.24V865.53" stroke="#59221D" stroke-width="5" stroke-miterlimit="10" stroke-linecap="round"/>
<path d="M875.48 727.23V865.53" stroke="#59221D" stroke-width="5" stroke-miterlimit="10" stroke-linecap="round"/>
<path d="M835.5 727.23V865.53" stroke="#59221D" stroke-width="5" stroke-miterlimit="10" stroke-linecap="round"/>
<path d="M795.53 722.25V865.53" stroke="#59221D" stroke-width="5" stroke-miterlimit="10" stroke-linecap="round"/>
<path d="M755.55 715.27V865.53" stroke="#59221D" stroke-width="5" stroke-miterlimit="10" stroke-linecap="round"/>
<path d="M715.57 705.3V865.53" stroke="#59221D" stroke-width="5" stroke-miterlimit="10" stroke-linecap="round"/>
<path d="M675.6 692.35V865.53" stroke="#59221D" stroke-width="5" stroke-miterlimit="10" stroke-linecap="round"/>
<path d="M635.62 676.4V865.53" stroke="#59221D" stroke-width="5" stroke-miterlimit="10" stroke-linecap="round"/>
<path d="M595.64 655.47V865.53" stroke="#59221D" stroke-width="5" stroke-miterlimit="10" stroke-linecap="round"/>
<path d="M555.67 630.55V865.53" stroke="#59221D" stroke-width="5" stroke-miterlimit="10" stroke-linecap="round"/>
<path d="M487.15 655.47V864.14" stroke="#59221D" stroke-width="5" stroke-miterlimit="10" stroke-linecap="round"/>
<path d="M447.17 696V864.14" stroke="#59221D" stroke-width="5" stroke-miterlimit="10" stroke-linecap="round"/>
<path d="M407.2 728.24V864.14" stroke="#59221D" stroke-width="5" stroke-miterlimit="10" stroke-linecap="round"/>
<path d="M367.22 755.8V864.14" stroke="#59221D" stroke-width="5" stroke-miterlimit="10" stroke-linecap="round"/>
<path d="M327.24 780.13V864.14" stroke="#59221D" stroke-width="5" stroke-miterlimit="10" stroke-linecap="round"/>
<path d="M287.27 801.45V864.14" stroke="#59221D" stroke-width="5" stroke-miterlimit="10" stroke-linecap="round"/>
<path d="M247.29 818.73V864.14" stroke="#59221D" stroke-width="5" stroke-miterlimit="10" stroke-linecap="round"/>
<path d="M207.31 835.48V864.14" stroke="#59221D" stroke-width="5" stroke-miterlimit="10" stroke-linecap="round"/>
<path d="M167.34 846.54V864.14" stroke="#59221D" stroke-width="5" stroke-miterlimit="10" stroke-linecap="round"/>
<path d="M2620.34 544.39V865.1" stroke="#59221D" stroke-width="5" stroke-miterlimit="10" stroke-linecap="round"/>
<path d="M2660.82 588.25V865.1" stroke="#59221D" stroke-width="5" stroke-miterlimit="10" stroke-linecap="round"/>
<path d="M2701.3 622.14V865.1" stroke="#59221D" stroke-width="5" stroke-miterlimit="10" stroke-linecap="round"/>
<path d="M2741.78 649.05V865.1" stroke="#59221D" stroke-width="5" stroke-miterlimit="10" stroke-linecap="round"/>
<path d="M2782.26 670.98V865.1" stroke="#59221D" stroke-width="5" stroke-miterlimit="10" stroke-linecap="round"/>
<path d="M2822.74 687.93V865.1" stroke="#59221D" stroke-width="5" stroke-miterlimit="10" stroke-linecap="round"/>
<path d="M2863.22 702.88V865.1" stroke="#59221D" stroke-width="5" stroke-miterlimit="10" stroke-linecap="round"/>
<path d="M2903.7 712.84V865.1" stroke="#59221D" stroke-width="5" stroke-miterlimit="10" stroke-linecap="round"/>
<path d="M2944.17 719.82V865.1" stroke="#59221D" stroke-width="5" stroke-miterlimit="10" stroke-linecap="round"/>
<path d="M2984.65 724.81V865.1" stroke="#59221D" stroke-width="5" stroke-miterlimit="10" stroke-linecap="round"/>
<path d="M3025.13 726.8V865.1" stroke="#59221D" stroke-width="5" stroke-miterlimit="10" stroke-linecap="round"/>
<path d="M3065.61 726.8V865.1" stroke="#59221D" stroke-width="5" stroke-miterlimit="10" stroke-linecap="round"/>
<path d="M3106.09 721.82V865.1" stroke="#59221D" stroke-width="5" stroke-miterlimit="10" stroke-linecap="round"/>
<path d="M3146.57 713.84V865.1" stroke="#59221D" stroke-width="5" stroke-miterlimit="10" stroke-linecap="round"/>
<path d="M3187.05 703.87V865.1" stroke="#59221D" stroke-width="5" stroke-miterlimit="10" stroke-linecap="round"/>
<path d="M3227.53 689.92V865.1" stroke="#59221D" stroke-width="5" stroke-miterlimit="10" stroke-linecap="round"/>
<path d="M3268.01 673.97V865.1" stroke="#59221D" stroke-width="5" stroke-miterlimit="10" stroke-linecap="round"/>
<path d="M3308.49 653.04V865.1" stroke="#59221D" stroke-width="5" stroke-miterlimit="10" stroke-linecap="round"/>
<path d="M3347.99 628.12V865.1" stroke="#59221D" stroke-width="5" stroke-miterlimit="10" stroke-linecap="round"/>
<path d="M3702.97 843.6V865.1" stroke="#59221D" stroke-width="5" stroke-miterlimit="10" stroke-linecap="round"/>
<path d="M3662.49 829.55V865.1" stroke="#59221D" stroke-width="5" stroke-miterlimit="10" stroke-linecap="round"/>
<path d="M3622.01 813.06V865.1" stroke="#59221D" stroke-width="5" stroke-miterlimit="10" stroke-linecap="round"/>
<path d="M3581.53 794.93V865.1" stroke="#59221D" stroke-width="5" stroke-miterlimit="10" stroke-linecap="round"/>
<path d="M3541.05 772.55V865.1" stroke="#59221D" stroke-width="5" stroke-miterlimit="10" stroke-linecap="round"/>
<path d="M3500.57 745.54V865.1" stroke="#59221D" stroke-width="5" stroke-miterlimit="10" stroke-linecap="round"/>
<path d="M3460.09 711.46V865.1" stroke="#59221D" stroke-width="5" stroke-miterlimit="10" stroke-linecap="round"/>
<path d="M3420.59 671.13V865.1" stroke="#59221D" stroke-width="5" stroke-miterlimit="10" stroke-linecap="round"/>
<path d="M2547.57 532.53V865.1" stroke="#59221D" stroke-width="5" stroke-miterlimit="10" stroke-linecap="round"/>
<path d="M2507.09 570.18V865.1" stroke="#59221D" stroke-width="5" stroke-miterlimit="10" stroke-linecap="round"/>
<path d="M2466.61 600.4V865.1" stroke="#59221D" stroke-width="5" stroke-miterlimit="10" stroke-linecap="round"/>
<path d="M2426.13 625.36V865.1" stroke="#59221D" stroke-width="5" stroke-miterlimit="10" stroke-linecap="round"/>
<path d="M2385.65 647.17V865.1" stroke="#59221D" stroke-width="5" stroke-miterlimit="10" stroke-linecap="round"/>
<path d="M2345.17 666.79V865.1" stroke="#59221D" stroke-width="5" stroke-miterlimit="10" stroke-linecap="round"/>
<path d="M2304.69 683.33V865.1" stroke="#59221D" stroke-width="5" stroke-miterlimit="10" stroke-linecap="round"/>
<path d="M2264.21 699.7V865.1" stroke="#59221D" stroke-width="5" stroke-miterlimit="10" stroke-linecap="round"/>
<path d="M2223.73 710.94V865.1" stroke="#59221D" stroke-width="5" stroke-miterlimit="10" stroke-linecap="round"/>
<path d="M2183.25 721.11V865.1" stroke="#59221D" stroke-width="5" stroke-miterlimit="10" stroke-linecap="round"/>
<path d="M2142.77 730.16V865.1" stroke="#59221D" stroke-width="5" stroke-miterlimit="10" stroke-linecap="round"/>
<path d="M2102.29 737.15V865.1" stroke="#59221D" stroke-width="5" stroke-miterlimit="10" stroke-linecap="round"/>
<path d="M2061.81 741.93V865.1" stroke="#59221D" stroke-width="5" stroke-miterlimit="10" stroke-linecap="round"/>
<path d="M2021.33 748.61V865.1" stroke="#59221D" stroke-width="5" stroke-miterlimit="10" stroke-linecap="round"/>
<path d="M1980.85 748.2V865.1" stroke="#59221D" stroke-width="5" stroke-miterlimit="10" stroke-linecap="round"/>
<path d="M1307.75 539.6V960.79" stroke="#59221D" stroke-width="5" stroke-miterlimit="10" stroke-linecap="round"/>
<path d="M520.52 605.76V960.79" stroke="#59221D" stroke-width="5" stroke-miterlimit="10" stroke-linecap="round"/>
<path d="M2582.97 489.58V960.79" stroke="#59221D" stroke-width="5" stroke-miterlimit="10" stroke-linecap="round"/>
<path d="M3380.11 605.76V960.79" stroke="#59221D" stroke-width="5" stroke-miterlimit="10" stroke-linecap="round"/>
<path d="M1307.48 534.53C1419.2 688.34 1712.63 747.81 1957.56 747.81" stroke="#59221D" stroke-width="5" stroke-miterlimit="10" stroke-linecap="round"/>
<path d="M520.79 605.4C607.64 673.1 729.29 726.06 863.94 726.06C1064.62 726.06 1236.41 667.48 1307.19 535.06" stroke="#59221D" stroke-width="5" stroke-miterlimit="10" stroke-linecap="round"/>
<path d="M41.1201 864.63C241.75 864.63 474.76 707.32 520.68 605.46" stroke="#59221D" stroke-width="5" stroke-miterlimit="10" stroke-linecap="round"/>
<path d="M2583.24 489C2470.12 642.84 2204 747.81 1956 747.81" stroke="#59221D" stroke-width="5" stroke-miterlimit="10" stroke-linecap="round"/>
<path d="M3379.84 605.4C3291.84 673.1 3168.71 726.06 3032.36 726.06C2829.16 726.06 2655.21 621.72 2583.54 489.26" stroke="#59221D" stroke-width="5" stroke-miterlimit="10" stroke-linecap="round"/>
<path d="M3861.29 864.64C3641.44 864.64 3426.49 725.18 3379.94 605.46" stroke="#59221D" stroke-width="5" stroke-miterlimit="10" stroke-linecap="round"/>
<path d="M3860.27 865.42H41.1201" stroke="#59221D" stroke-width="5" stroke-miterlimit="10" stroke-linecap="round"/>
<path d="M428.88 865.42C479.55 865.42 520.63 907.58 520.63 959.58" stroke="#59221D" stroke-width="5" stroke-miterlimit="10" stroke-linecap="round"/>
<path d="M612.27 865.42C561.6 865.42 520.52 907.58 520.52 959.58" stroke="#59221D" stroke-width="5" stroke-miterlimit="10" stroke-linecap="round"/>
<path d="M1216.88 865.42C1267.55 865.42 1308.63 907.58 1308.63 959.58" stroke="#59221D" stroke-width="5" stroke-miterlimit="10" stroke-linecap="round"/>
<path d="M1400.27 865.42C1349.6 865.42 1308.52 907.58 1308.52 959.58" stroke="#59221D" stroke-width="5" stroke-miterlimit="10" stroke-linecap="round"/>
<path d="M3287.25 865.42C3338.56 865.42 3380.15 907.58 3380.15 959.58" stroke="#59221D" stroke-width="5" stroke-miterlimit="10" stroke-linecap="round"/>
<path d="M3472.94 865.42C3421.64 865.42 3380.04 907.58 3380.04 959.58" stroke="#59221D" stroke-width="5" stroke-miterlimit="10" stroke-linecap="round"/>
<path d="M2490.18 865.42C2541.48 865.42 2583.08 907.58 2583.08 959.58" stroke="#59221D" stroke-width="5" stroke-miterlimit="10" stroke-linecap="round"/>
<path d="M2675.87 865.42C2624.56 865.42 2582.97 907.58 2582.97 959.58" stroke="#59221D" stroke-width="5" stroke-miterlimit="10" stroke-linecap="round"/>
<path d="M253.99 2274.79H4098.37" stroke="#59221D" stroke-width="5" stroke-miterlimit="10" stroke-linecap="round"/>
<path d="M944 2340.18H2451.7" stroke="#59221D" stroke-width="5" stroke-miterlimit="10" stroke-linecap="round"/>
<path d="M1374.77 1093.71L1279.41 1521.22C1275.51 1538.71 1265.76 1554.35 1251.78 1565.56C1237.79 1576.77 1220.4 1582.88 1202.48 1582.88H780.84C773.638 1582.88 766.527 1581.26 760.034 1578.15C753.54 1575.03 747.83 1570.49 743.325 1564.87C738.82 1559.25 735.635 1552.69 734.005 1545.68C732.376 1538.66 732.343 1531.37 733.91 1524.34L829.28 1096.83C833.182 1079.34 842.928 1063.7 856.912 1052.49C870.895 1041.29 888.28 1035.18 906.2 1035.18H1327.85C1335.05 1035.18 1342.16 1036.8 1348.65 1039.91C1355.15 1043.03 1360.85 1047.56 1365.36 1053.18C1369.86 1058.8 1373.05 1065.36 1374.68 1072.38C1376.3 1079.39 1376.34 1086.68 1374.77 1093.71Z" fill="white"/>
<path d="M2017.44 1093.71L1922.07 1521.22C1918.17 1538.71 1908.43 1554.35 1894.44 1565.56C1880.46 1576.77 1863.07 1582.88 1845.15 1582.88H1401.75C1394.55 1582.88 1387.44 1581.26 1380.94 1578.15C1374.45 1575.03 1368.74 1570.49 1364.24 1564.87C1359.73 1559.25 1356.55 1552.69 1354.92 1545.68C1353.29 1538.66 1353.26 1531.37 1354.83 1524.34L1450.2 1096.83C1454.1 1079.34 1463.85 1063.7 1477.83 1052.49C1491.81 1041.28 1509.2 1035.18 1527.12 1035.18H1970.52C1977.72 1035.18 1984.83 1036.8 1991.32 1039.91C1997.82 1043.03 2003.52 1047.56 2008.03 1053.18C2012.53 1058.8 2015.72 1065.36 2017.35 1072.38C2018.97 1079.39 2019.01 1086.68 2017.44 1093.71Z" fill="white"/>
<path d="M2694.51 1582.88H2067.18C2058.55 1582.88 2050.03 1580.94 2042.25 1577.21C2034.47 1573.47 2027.63 1568.04 2022.23 1561.3C2016.83 1554.57 2013.02 1546.71 2011.07 1538.3C2009.12 1529.89 2009.08 1521.15 2010.96 1512.73L2103.74 1096.83C2107.64 1079.34 2117.39 1063.7 2131.37 1052.49C2145.35 1041.28 2162.74 1035.18 2180.66 1035.18H2419.87C2433.26 1035.18 2446.41 1038.81 2457.91 1045.67C2469.41 1052.54 2478.84 1062.39 2485.19 1074.18L2728.65 1525.69C2742.58 1551.52 2723.87 1582.88 2694.51 1582.88Z" fill="white"/>
<path d="M1917.83 1582.88V1367.19C1917.83 1336.22 1930.13 1306.51 1952.04 1284.61C1973.94 1262.7 2003.65 1250.4 2034.62 1250.4H2307.89C2330.22 1250.4 2352.06 1256.98 2370.68 1269.32C2389.29 1281.65 2403.86 1299.2 2412.56 1319.77L2523.87 1582.88H1917.83Z" fill="white" stroke="#59221D" stroke-width="5" stroke-miterlimit="10"/>
<path d="M2510.7 1558.15H1920.32V1552.15H2508.16L2510.7 1558.15Z" fill="#7EBAD2"/>
<path d="M2498.96 1530.42H1920.32V1524.42H2496.43L2498.96 1530.42Z" fill="#7EBAD2"/>
<path d="M2487.23 1502.69H1920.32V1496.69H2484.69L2487.23 1502.69Z" fill="#7EBAD2"/>
<path d="M2475.5 1474.96H1920.32V1468.96H2472.96L2475.5 1474.96Z" fill="#7EBAD2"/>
<path d="M2463.77 1447.23H1920.32V1441.23H2461.23L2463.77 1447.23Z" fill="#7EBAD2"/>
<path d="M2452.04 1419.5H1920.32V1413.5H2449.5L2452.04 1419.5Z" fill="#7EBAD2"/>
<path d="M2440.31 1391.77H1920.32V1385.77H2437.77L2440.31 1391.77Z" fill="#7EBAD2"/>
<path d="M2428.57 1364H1920.37C1920.42 1362 1920.53 1360 1920.68 1358H2426L2428.57 1364Z" fill="#7EBAD2"/>
<path d="M2416.85 1336.32H1924.56C1925.12 1334.32 1925.75 1332.32 1926.43 1330.32H2414.31L2416.85 1336.32Z" fill="#7EBAD2"/>
<path d="M2404.22 1308.59H1936.52C1937.74 1306.55 1939.03 1304.55 1940.38 1302.59H2400.52C2401.81 1304.55 2403.05 1306.54 2404.22 1308.59Z" fill="#7EBAD2"/>
<path d="M2381.65 1280.86H1959.79C1962.22 1278.76 1964.73 1276.75 1967.33 1274.86H2374.33C2376.84 1276.75 2379.28 1278.75 2381.65 1280.86Z" fill="#7EBAD2"/>
<path d="M2621.34 1478.86L2436.85 1585.05" stroke="#FFD100" stroke-width="5" stroke-miterlimit="10"/>
<path d="M2620.67 1585.18C2625.61 1573.51 2629.05 1561.25 2630.9 1548.71C2640.85 1482.71 2600.43 1427.6 2540.62 1425.64C2480.81 1423.68 2424.27 1475.64 2414.32 1541.64C2412.07 1556.06 2412.33 1570.75 2415.1 1585.08L2620.67 1585.18Z" stroke="#FFD100" stroke-width="5" stroke-miterlimit="10"/>
<path d="M2458.46 1582.88H1917.17C1951.17 1554.6 2286.39 1423.21 2426.45 1478.23C2507.27 1510 2458.46 1582.88 2458.46 1582.88Z" fill="#A74602"/>
<path d="M2425.37 1511.94C2455.42 1523.75 2464.55 1538.24 2467.93 1555.56" stroke="#59221D" stroke-width="5" stroke-linecap="round" stroke-linejoin="round"/>
<path d="M2414.5 1542.39C2444.55 1554.2 2454.68 1565.69 2458.06 1583.01" stroke="#59221D" stroke-width="5" stroke-linecap="round" stroke-linejoin="round"/>
<path d="M2244.61 1250.4V1198.57L2170.29 1181.66L2125.91 1250.4L2245.58 1326.52L2244.61 1250.4Z" fill="#A74602"/>
<path d="M2125.91 1250.4L2248.84 1326.52" stroke="#59221D" stroke-width="5" stroke-miterlimit="10" stroke-linecap="round"/>
<path d="M2244.61 1252.4V1198.57L2173.55 1182.75C2173.69 1188.43 2175.16 1194 2177.85 1199.01C2180.54 1204.02 2184.37 1208.33 2189.03 1211.58L2244.61 1252.4Z" fill="#59221D"/>
<path d="M2256.66 1134.3C2255.3 1131.5 2253.17 1129.14 2250.53 1127.48C2247.89 1125.83 2244.84 1124.96 2241.72 1124.96H2205.35C2204.71 1124.96 2204.08 1124.96 2203.46 1125.04C2197.56 1125.51 2192.05 1128.19 2188.04 1132.55C2184.02 1136.9 2181.79 1142.6 2181.79 1148.52V1155.9C2170.5 1155.1 2161.58 1145.34 2161.58 1133.43C2161.58 1120.99 2171.31 1110.91 2183.3 1110.91C2185.01 1110.91 2186.71 1111.11 2188.36 1111.53C2192.24 1104.22 2212.63 1068.88 2234.28 1087.94C2240.01 1092.94 2234.92 1103.12 2234.56 1103.84C2235.56 1102.75 2257.48 1078.91 2276.85 1097.39C2291.94 1111.79 2268.63 1127.59 2256.66 1134.3Z" fill="#59221D"/>
<path d="M2258.34 1141.57V1184.71C2258.34 1190.89 2255.89 1196.81 2251.52 1201.18C2247.15 1205.55 2241.23 1208 2235.05 1208H2205.05C2198.87 1208 2192.95 1205.55 2188.58 1201.18C2184.21 1196.81 2181.76 1190.89 2181.76 1184.71V1184.55H2165.29C2160.68 1184.55 2156.25 1182.72 2152.99 1179.45C2149.72 1176.19 2147.89 1171.76 2147.89 1167.15V1163.69C2147.89 1159.08 2149.72 1154.65 2152.99 1151.39C2156.25 1148.12 2160.68 1146.29 2165.29 1146.29H2168C2170.62 1146.28 2173.2 1146.84 2175.58 1147.94C2177.95 1149.03 2180.06 1150.63 2181.76 1152.62V1148.52C2181.76 1142.27 2184.24 1136.28 2188.66 1131.86C2193.08 1127.44 2199.07 1124.96 2205.32 1124.96H2241.69C2243.87 1124.95 2246.04 1125.38 2248.06 1126.21C2250.08 1127.05 2251.91 1128.27 2253.46 1129.81C2255.01 1131.35 2256.23 1133.19 2257.07 1135.2C2257.91 1137.22 2258.34 1139.39 2258.34 1141.57Z" fill="#A74602"/>
<path d="M2253.94 1146.93C2253.94 1146.93 2230.26 1142.93 2233.76 1152.44C2237.26 1161.95 2237.28 1172.28 2234.85 1177.38" stroke="#59221D" stroke-width="5" stroke-miterlimit="10" stroke-linecap="round"/>
<path d="M2212.86 1167.18C2214.59 1167.18 2216 1165.26 2216 1162.9C2216 1160.54 2214.59 1158.62 2212.86 1158.62C2211.13 1158.62 2209.72 1160.54 2209.72 1162.9C2209.72 1165.26 2211.13 1167.18 2212.86 1167.18Z" fill="#59221D"/>
<path d="M2245.34 1167.18C2247.07 1167.18 2248.48 1165.26 2248.48 1162.9C2248.48 1160.54 2247.07 1158.62 2245.34 1158.62C2243.61 1158.62 2242.2 1160.54 2242.2 1162.9C2242.2 1165.26 2243.61 1167.18 2245.34 1167.18Z" fill="#59221D"/>
<path d="M2233.69 1187.56C2233.69 1187.56 2222.04 1190.56 2220.59 1182.19" stroke="#59221D" stroke-width="5" stroke-miterlimit="10" stroke-linecap="round"/>
<path d="M2198.41 1148C2204.65 1145.09 2211.64 1144.21 2218.41 1145.47" stroke="#59221D" stroke-width="5" stroke-miterlimit="10" stroke-linecap="round"/>
<path d="M2176.39 1168.34C2176.39 1165.09 2175.1 1161.97 2172.8 1159.67C2170.5 1157.37 2167.38 1156.08 2164.13 1156.08" stroke="#59221D" stroke-width="5" stroke-miterlimit="10" stroke-linecap="round"/>
<path d="M2185.25 1145.29C2194.76 1145.29 2202.47 1137.58 2202.47 1128.07C2202.47 1118.56 2194.76 1110.85 2185.25 1110.85C2175.74 1110.85 2168.03 1118.56 2168.03 1128.07C2168.03 1137.58 2175.74 1145.29 2185.25 1145.29Z" fill="#59221D"/>
<path d="M3067.76 2129.71C3067.76 2209.47 3012.38 2274.12 2936.95 2274.12H2902.09C2974.86 2274.12 3033.84 2209.47 3033.84 2129.71C3033.84 2049.95 2974.84 1985.29 2902.09 1985.29H2937C3012.38 1985.29 3067.76 2050 3067.76 2129.71Z" fill="white" stroke="#59221D" stroke-width="5" stroke-miterlimit="10"/>
<path d="M2902.1 2274.13C2974.86 2274.13 3033.85 2209.47 3033.85 2129.71C3033.85 2049.95 2974.86 1985.29 2902.1 1985.29C2829.34 1985.29 2770.35 2049.95 2770.35 2129.71C2770.35 2209.47 2829.34 2274.13 2902.1 2274.13Z" fill="#127053" stroke="#59221D" stroke-width="5" stroke-miterlimit="10"/>
<path d="M2902.09 2218.38C2946.2 2218.38 2981.95 2179.19 2981.95 2130.84C2981.95 2082.49 2946.2 2043.3 2902.09 2043.3C2857.98 2043.3 2822.23 2082.49 2822.23 2130.84C2822.23 2179.19 2857.98 2218.38 2902.09 2218.38Z" stroke="#59221D" stroke-width="5" stroke-miterlimit="10"/>
<path d="M3224.4 1795L2792.12 1582.9L2496.79 1035.2L2485.88 1014.95C2476.81 997.961 2463.29 983.755 2446.77 973.85C2430.25 963.944 2411.35 958.712 2392.09 958.71H866.94C842.766 958.709 819.313 966.947 800.449 982.064C781.585 997.182 768.436 1018.28 763.17 1041.87L530.6 2084.4H3275.6V1880.47C3275.59 1862.92 3270.83 1845.71 3261.81 1830.66C3252.8 1815.61 3239.87 1803.28 3224.4 1795ZM1202.48 1582.9H780.84C773.638 1582.9 766.527 1581.28 760.034 1578.17C753.54 1575.05 747.83 1570.51 743.325 1564.89C738.82 1559.27 735.635 1552.71 734.005 1545.7C732.376 1538.68 732.343 1531.39 733.91 1524.36L829.28 1096.85C833.182 1079.36 842.928 1063.72 856.911 1052.51C870.895 1041.31 888.28 1035.2 906.2 1035.2H1327.85C1335.05 1035.2 1342.16 1036.82 1348.65 1039.93C1355.14 1043.05 1360.85 1047.58 1365.36 1053.2C1369.86 1058.82 1373.05 1065.38 1374.68 1072.4C1376.3 1079.41 1376.34 1086.7 1374.77 1093.73L1279.41 1521.24C1275.5 1538.73 1265.76 1554.37 1251.77 1565.57C1237.79 1576.78 1220.4 1582.88 1202.48 1582.88V1582.9ZM1845.15 1582.9H1401.75C1394.55 1582.9 1387.44 1581.28 1380.94 1578.17C1374.45 1575.05 1368.74 1570.51 1364.24 1564.89C1359.73 1559.27 1356.55 1552.71 1354.92 1545.7C1353.29 1538.68 1353.26 1531.39 1354.83 1524.36L1450.2 1096.85C1454.1 1079.36 1463.85 1063.72 1477.83 1052.51C1491.81 1041.3 1509.2 1035.2 1527.12 1035.2H1970.52C1977.72 1035.2 1984.83 1036.82 1991.32 1039.93C1997.82 1043.05 2003.52 1047.58 2008.03 1053.2C2012.53 1058.82 2015.72 1065.38 2017.35 1072.4C2018.97 1079.41 2019.01 1086.7 2017.44 1093.73L1922.07 1521.24C1918.17 1538.73 1908.42 1554.37 1894.44 1565.57C1880.45 1576.78 1863.07 1582.88 1845.15 1582.88V1582.9ZM2694.51 1582.9H2067.18C2058.55 1582.9 2050.03 1580.96 2042.25 1577.23C2034.47 1573.49 2027.63 1568.06 2022.23 1561.32C2016.83 1554.59 2013.02 1546.73 2011.07 1538.32C2009.12 1529.91 2009.08 1521.17 2010.96 1512.75L2103.74 1096.85C2107.64 1079.36 2117.39 1063.72 2131.37 1052.51C2145.35 1041.3 2162.74 1035.2 2180.66 1035.2H2419.87C2433.26 1035.2 2446.41 1038.83 2457.91 1045.69C2469.41 1052.56 2478.84 1062.41 2485.19 1074.2L2728.65 1525.71C2742.58 1551.52 2723.87 1582.88 2694.51 1582.88V1582.9Z" fill="#20CC96"/>
<path d="M3347.74 2106.51V2131.51C3347.74 2137.37 3345.41 2143 3341.26 2147.14C3337.12 2151.29 3331.49 2153.62 3325.63 2153.62H480.57C477.666 2153.62 474.79 2153.05 472.106 2151.94C469.422 2150.83 466.984 2149.2 464.93 2147.15C462.875 2145.09 461.246 2142.66 460.134 2139.97C459.022 2137.29 458.45 2134.41 458.45 2131.51V2106.51C458.449 2103.61 459.02 2100.73 460.131 2098.04C461.243 2095.36 462.872 2092.92 464.927 2090.87C466.981 2088.82 469.42 2087.19 472.104 2086.08C474.789 2084.97 477.665 2084.4 480.57 2084.4H3325.63C3328.53 2084.4 3331.41 2084.97 3334.09 2086.08C3336.78 2087.19 3339.21 2088.82 3341.27 2090.87C3343.32 2092.93 3344.95 2095.36 3346.06 2098.05C3347.17 2100.73 3347.74 2103.61 3347.74 2106.51Z" fill="white" stroke="#59221D" stroke-width="5" stroke-miterlimit="10"/>
<path d="M2639.83 2106.51V2131.51C2639.83 2137.37 2637.5 2143 2633.35 2147.14C2629.21 2151.29 2623.58 2153.62 2617.72 2153.62H480.57C477.666 2153.62 474.79 2153.05 472.106 2151.94C469.422 2150.83 466.984 2149.2 464.93 2147.15C462.875 2145.09 461.246 2142.66 460.134 2139.97C459.022 2137.29 458.45 2134.41 458.45 2131.51V2106.51C458.449 2103.61 459.02 2100.73 460.131 2098.04C461.243 2095.36 462.872 2092.92 464.927 2090.87C466.981 2088.82 469.42 2087.19 472.104 2086.08C474.789 2084.97 477.665 2084.4 480.57 2084.4H2617.72C2620.62 2084.4 2623.5 2084.97 2626.18 2086.08C2628.87 2087.19 2631.3 2088.82 2633.36 2090.87C2635.41 2092.93 2637.04 2095.36 2638.15 2098.05C2639.26 2100.73 2639.83 2103.61 2639.83 2106.51Z" fill="white" stroke="#59221D" stroke-width="5" stroke-miterlimit="10"/>
<path d="M3215.88 1957.76C3248.7 1957.76 3275.31 1922.79 3275.31 1879.65C3275.31 1836.51 3248.7 1801.54 3215.88 1801.54C3183.06 1801.54 3156.45 1836.51 3156.45 1879.65C3156.45 1922.79 3183.06 1957.76 3215.88 1957.76Z" fill="white"/>
<path d="M3206.03 1947.27C3240.03 1947.27 3267.59 1913.35 3267.59 1871.51C3267.59 1829.67 3240.03 1795.75 3206.03 1795.75C3172.03 1795.75 3144.47 1829.67 3144.47 1871.51C3144.47 1913.35 3172.03 1947.27 3206.03 1947.27Z" stroke="#59221D" stroke-width="5" stroke-miterlimit="10" stroke-linecap="round"/>
<path d="M3202.77 1795.75H3185.37C3151.37 1795.75 3123.81 1829.67 3123.81 1871.51C3123.81 1913.35 3151.37 1947.27 3185.37 1947.27H3202.77" stroke="#59221D" stroke-width="5" stroke-miterlimit="10" stroke-linecap="round"/>
<path d="M2649.25 1957.76C2682.07 1957.76 2708.68 1922.79 2708.68 1879.65C2708.68 1836.51 2682.07 1801.54 2649.25 1801.54C2616.43 1801.54 2589.82 1836.51 2589.82 1879.65C2589.82 1922.79 2616.43 1957.76 2649.25 1957.76Z" fill="white"/>
<path d="M2639.4 1947.27C2673.4 1947.27 2700.96 1913.35 2700.96 1871.51C2700.96 1829.67 2673.4 1795.75 2639.4 1795.75C2605.4 1795.75 2577.84 1829.67 2577.84 1871.51C2577.84 1913.35 2605.4 1947.27 2639.4 1947.27Z" stroke="#59221D" stroke-width="5" stroke-miterlimit="10" stroke-linecap="round"/>
<path d="M2636.14 1795.75H2618.74C2584.74 1795.75 2557.18 1829.67 2557.18 1871.51C2557.18 1913.35 2584.74 1947.27 2618.74 1947.27H2636.14" stroke="#59221D" stroke-width="5" stroke-miterlimit="10" stroke-linecap="round"/>
<path d="M2526.35 2084.4V1880.47C2526.35 1862.92 2521.59 1845.71 2512.58 1830.65C2503.56 1815.6 2490.64 1803.27 2475.17 1794.98L2089.28 1615.35" stroke="#59221D" stroke-width="5" stroke-miterlimit="10" stroke-linecap="round"/>
<path d="M1201 2040.46L1426.65 1029.81C1427.96 1023.96 1431.22 1018.74 1435.89 1014.99C1440.57 1011.24 1446.38 1009.2 1452.37 1009.2H2033.1C2038 1009.2 2042.83 1010.31 2047.24 1012.43C2051.65 1014.55 2055.53 1017.63 2058.6 1021.45C2061.66 1025.27 2063.82 1029.73 2064.93 1034.5C2066.04 1039.26 2066.06 1044.22 2065 1049L1843.64 2040.43" stroke="#59221D" stroke-width="5" stroke-miterlimit="10" stroke-linecap="round"/>
<path d="M1218.29 1615.35H751.65" stroke="#59221D" stroke-width="5" stroke-miterlimit="10" stroke-linecap="round"/>
<path d="M776.33 1009.2H2485.88" stroke="#59221D" stroke-width="5" stroke-miterlimit="10" stroke-linecap="round"/>
<path d="M2734.38 1853.48H3102.59" stroke="#59221D" stroke-width="5" stroke-miterlimit="10" stroke-linecap="round"/>
<path d="M2156.99 1615.35H2756.05" stroke="#59221D" stroke-width="5" stroke-miterlimit="10" stroke-linecap="round"/>
<path d="M627.36 2032C666.01 1941.8 751.94 1879 851.73 1879C954.99 1879 1043.39 1946.19 1079.95 2041.45H1942.82C1976.7 1941.7 2066.31 1879 2166.1 1879C2269.36 1879 2357.76 1946.19 2394.31 2041.45" stroke="#59221D" stroke-width="5" stroke-miterlimit="10" stroke-linecap="round"/>
<path d="M3047.18 1888.12H2789.79C2779.39 1888.12 2770.96 1896.55 2770.96 1906.95V2013.61C2770.96 2024.01 2779.39 2032.44 2789.79 2032.44H3047.18C3057.58 2032.44 3066.01 2024.01 3066.01 2013.61V1906.95C3066.01 1896.55 3057.58 1888.12 3047.18 1888.12Z" stroke="white" stroke-width="6" stroke-miterlimit="10" stroke-linecap="round"/>
<path d="M2812.32 1928.53H3024.64" stroke="#59221D" stroke-width="5" stroke-miterlimit="10" stroke-linecap="round"/>
<path d="M2812.32 1962.24H3024.64" stroke="#59221D" stroke-width="5" stroke-miterlimit="10" stroke-linecap="round"/>
<path d="M2812.32 1995.95H3024.64" stroke="#59221D" stroke-width="5" stroke-miterlimit="10" stroke-linecap="round"/>
<path d="M1044.75 2084.4H658.75C679.12 1993.73 757.81 1926.14 851.75 1926.14C945.69 1926.14 1024.38 1993.73 1044.75 2084.4Z" fill="#59221D"/>
<path d="M999.79 2130.48C999.79 2210.24 944.4 2274.9 868.97 2274.9H834.12C906.88 2274.9 965.87 2210.24 965.87 2130.48C965.87 2050.72 906.87 1986.06 834.12 1986.06H869C944.4 1986.06 999.79 2050.72 999.79 2130.48Z" fill="#127053" stroke="#59221D" stroke-width="5" stroke-miterlimit="10"/>
<path d="M834.12 2274.9C906.884 2274.9 965.87 2210.24 965.87 2130.48C965.87 2050.72 906.884 1986.06 834.12 1986.06C761.357 1986.06 702.37 2050.72 702.37 2130.48C702.37 2210.24 761.357 2274.9 834.12 2274.9Z" fill="white" stroke="#59221D" stroke-width="5" stroke-miterlimit="10"/>
<path d="M843.7 2227.86C887.806 2227.86 923.56 2188.67 923.56 2140.32C923.56 2091.97 887.806 2052.78 843.7 2052.78C799.595 2052.78 763.84 2091.97 763.84 2140.32C763.84 2188.67 799.595 2227.86 843.7 2227.86Z" fill="#127053"/>
<path d="M834.12 2219.15C878.226 2219.15 913.98 2179.96 913.98 2131.61C913.98 2083.26 878.226 2044.07 834.12 2044.07C790.015 2044.07 754.26 2083.26 754.26 2131.61C754.26 2179.96 790.015 2219.15 834.12 2219.15Z" stroke="#59221D" stroke-width="5" stroke-miterlimit="10"/>
<path d="M833.9 2144.56C841.08 2144.56 846.9 2138.74 846.9 2131.56C846.9 2124.38 841.08 2118.56 833.9 2118.56C826.721 2118.56 820.9 2124.38 820.9 2131.56C820.9 2138.74 826.721 2144.56 833.9 2144.56Z" stroke="#59221D" stroke-width="5" stroke-miterlimit="10"/>
<path d="M2359.12 2084.4H1973.12C1993.49 1993.73 2072.18 1926.14 2166.12 1926.14C2260.06 1926.14 2338.75 1993.73 2359.12 2084.4Z" fill="#59221D"/>
<path d="M2314.16 2130.48C2314.16 2210.24 2258.77 2274.9 2183.34 2274.9H2148.49C2221.25 2274.9 2280.24 2210.24 2280.24 2130.48C2280.24 2050.72 2221.24 1986.06 2148.49 1986.06H2183.34C2258.77 1986.06 2314.16 2050.72 2314.16 2130.48Z" fill="#127053" stroke="#59221D" stroke-width="5" stroke-miterlimit="10"/>
<path d="M2148.49 2274.9C2221.25 2274.9 2280.24 2210.24 2280.24 2130.48C2280.24 2050.72 2221.25 1986.06 2148.49 1986.06C2075.73 1986.06 2016.74 2050.72 2016.74 2130.48C2016.74 2210.24 2075.73 2274.9 2148.49 2274.9Z" fill="white" stroke="#59221D" stroke-width="5" stroke-miterlimit="10"/>
<path d="M2158.07 2227.86C2202.18 2227.86 2237.93 2188.67 2237.93 2140.32C2237.93 2091.97 2202.18 2052.78 2158.07 2052.78C2113.96 2052.78 2078.21 2091.97 2078.21 2140.32C2078.21 2188.67 2113.96 2227.86 2158.07 2227.86Z" fill="#127053"/>
<path d="M2148.49 2219.15C2192.6 2219.15 2228.35 2179.96 2228.35 2131.61C2228.35 2083.26 2192.6 2044.07 2148.49 2044.07C2104.38 2044.07 2068.63 2083.26 2068.63 2131.61C2068.63 2179.96 2104.38 2219.15 2148.49 2219.15Z" stroke="#59221D" stroke-width="5" stroke-miterlimit="10"/>
<path d="M2148.27 2144.56C2155.45 2144.56 2161.27 2138.74 2161.27 2131.56C2161.27 2124.38 2155.45 2118.56 2148.27 2118.56C2141.09 2118.56 2135.27 2124.38 2135.27 2131.56C2135.27 2138.74 2141.09 2144.56 2148.27 2144.56Z" stroke="#59221D" stroke-width="5" stroke-miterlimit="10"/>
<path d="M2145.56 788.1V927.24C2145.56 931.37 2144.75 935.46 2143.17 939.275C2141.59 943.091 2139.27 946.558 2136.35 949.479C2133.43 952.399 2129.96 954.716 2126.15 956.296C2122.33 957.877 2118.24 958.69 2114.11 958.69H1100.37C1096.24 958.69 1092.15 957.876 1088.34 956.296C1084.52 954.715 1081.05 952.398 1078.14 949.478C1075.22 946.557 1072.9 943.09 1071.32 939.275C1069.74 935.459 1068.93 931.37 1068.93 927.24V788.09C1068.93 783.961 1069.74 779.872 1071.32 776.057C1072.9 772.242 1075.22 768.775 1078.14 765.856C1081.06 762.936 1084.52 760.62 1088.34 759.041C1092.15 757.461 1096.24 756.649 1100.37 756.65H2114.1C2122.44 756.65 2130.44 759.963 2136.34 765.861C2142.24 771.759 2145.56 779.758 2145.56 788.1Z" fill="#CE914D"/>
<path d="M2145.56 788.1V927.24C2145.56 931.37 2144.75 935.46 2143.17 939.275C2141.59 943.091 2139.27 946.558 2136.35 949.479C2133.43 952.399 2129.96 954.716 2126.15 956.296C2122.33 957.877 2118.24 958.69 2114.11 958.69H1764.78C1756.44 958.687 1748.44 955.373 1742.55 949.475C1736.65 943.577 1733.34 935.579 1733.34 927.24V788.09C1733.34 779.752 1736.65 771.755 1742.55 765.859C1748.44 759.962 1756.44 756.65 1764.78 756.65H2114.1C2122.44 756.65 2130.44 759.963 2136.34 765.861C2142.24 771.759 2145.56 779.758 2145.56 788.1Z" fill="#A74602"/>
<path d="M2132.47 796.64V918.7C2132.47 933.94 2119.36 946.29 2103.18 946.29H1777.89C1761.72 946.29 1748.61 933.94 1748.61 918.7V796.63C1748.61 781.39 1761.72 769.04 1777.89 769.04H2103.17C2119.35 769 2132.47 781.4 2132.47 796.64Z" stroke="#7EBAD2" stroke-width="5" stroke-miterlimit="10" stroke-linecap="round"/>
<path d="M1748.53 857.12H2129.27" stroke="#7EBAD2" stroke-width="5" stroke-miterlimit="10" stroke-linecap="round"/>
<path d="M1906.14 340.3H1908C1910.82 340.3 1913.52 341.419 1915.51 343.411C1917.5 345.402 1918.62 348.103 1918.62 350.92V413.92H1895.53V350.92C1895.53 348.103 1896.65 345.402 1898.64 343.411C1900.63 341.419 1903.33 340.3 1906.15 340.3H1906.14Z" stroke="#59221D" stroke-width="5" stroke-miterlimit="10" stroke-linecap="round"/>
<path d="M1834.59 410.65H1978.15C1985.63 410.65 1992.8 413.62 1998.08 418.907C2003.37 424.193 2006.34 431.364 2006.34 438.84V756.65H1806.4V438.84C1806.4 431.364 1809.37 424.193 1814.66 418.907C1819.94 413.62 1827.11 410.65 1834.59 410.65Z" fill="#59221D"/>
<path d="M2006.33 438.84V444.43L1909.85 538.07V756.65H1904.85V537.89L1806.4 444.34V438.84C1806.4 438.38 1806.4 437.93 1806.4 437.48L1904.85 531V410.65H1909.85V531.1L2006.29 437.5C2006.32 437.94 2006.33 438.39 2006.33 438.84Z" fill="white"/>
<path d="M1936.99 958.69V889.42" stroke="#59221D" stroke-width="5" stroke-miterlimit="10"/>
<path d="M924.6 958.69V889.42" stroke="#59221D" stroke-width="5" stroke-miterlimit="10"/>
<path d="M2340.42 958.69V889.42" stroke="#59221D" stroke-width="5" stroke-miterlimit="10"/>
<path d="M868.69 889.42H2378.29" stroke="#59221D" stroke-width="5" stroke-miterlimit="10" stroke-linecap="round"/>
<path d="M1253.45 524.28H1767.65C1777.92 524.28 1787.77 528.358 1795.04 535.619C1802.31 542.88 1806.39 552.728 1806.4 563V756.65H1218.24V559.49C1218.24 554.866 1219.15 550.288 1220.92 546.016C1222.69 541.744 1225.28 537.862 1228.55 534.593C1231.82 531.323 1235.7 528.73 1239.98 526.96C1244.25 525.191 1248.83 524.28 1253.45 524.28Z" fill="#FFC200"/>
<path d="M1804.23 756.65V562.73C1804.23 553.118 1800.41 543.898 1793.62 537.097C1786.83 530.297 1777.61 526.471 1768 526.46H1725.25C1715.1 526.46 1705.36 530.494 1698.18 537.675C1690.99 544.856 1686.96 554.595 1686.96 564.75V756.65" stroke="white" stroke-width="5" stroke-miterlimit="10"/>
<path d="M1251.09 524.28V756.65" stroke="white" stroke-width="5" stroke-miterlimit="10"/>
<path d="M1284.8 524.28V756.65" stroke="white" stroke-width="5" stroke-miterlimit="10"/>
<path d="M1318.51 524.28V756.65" stroke="white" stroke-width="5" stroke-miterlimit="10"/>
<path d="M1352.22 524.28V756.65" stroke="white" stroke-width="5" stroke-miterlimit="10"/>
<path d="M1385.93 524.28V756.65" stroke="white" stroke-width="5" stroke-miterlimit="10"/>
<path d="M1419.64 524.28V756.65" stroke="white" stroke-width="5" stroke-miterlimit="10"/>
<path d="M1453.35 524.28V756.65" stroke="white" stroke-width="5" stroke-miterlimit="10"/>
<path d="M1487.06 524.28V756.65" stroke="white" stroke-width="5" stroke-miterlimit="10"/>
<path d="M1520.77 524.28V756.65" stroke="white" stroke-width="5" stroke-miterlimit="10"/>
<path d="M1554.48 524.28V756.65" stroke="white" stroke-width="5" stroke-miterlimit="10"/>
<path d="M1588.19 524.28V756.65" stroke="white" stroke-width="5" stroke-miterlimit="10"/>
<path d="M1621.9 524.28V756.65" stroke="white" stroke-width="5" stroke-miterlimit="10"/>
<path d="M1655.61 524.28V756.65" stroke="white" stroke-width="5" stroke-miterlimit="10"/>
<path d="M1218.24 725.28H1684.21" stroke="white" stroke-width="5" stroke-miterlimit="10"/>
<path d="M1218.24 691.57H1684.21" stroke="white" stroke-width="5" stroke-miterlimit="10"/>
<path d="M1218.24 657.86H1684.21" stroke="white" stroke-width="5" stroke-miterlimit="10"/>
<path d="M1218.24 624.15H1684.21" stroke="white" stroke-width="5" stroke-miterlimit="10"/>
<path d="M1218.24 590.44H1684.21" stroke="white" stroke-width="5" stroke-miterlimit="10"/>
<path d="M1218.24 556.73H1687.47" stroke="white" stroke-width="5" stroke-miterlimit="10"/>
<path d="M1745.57 526.46V756.65" stroke="white" stroke-width="5" stroke-miterlimit="10"/>
<path d="M1557.74 480.13H1560.74C1565.33 480.13 1569.73 481.953 1572.97 485.197C1576.22 488.441 1578.04 492.842 1578.04 497.43V500.43C1578.04 505.018 1576.22 509.419 1572.97 512.663C1569.73 515.907 1565.33 517.73 1560.74 517.73H1540.41V497.43C1540.41 495.156 1540.86 492.904 1541.73 490.803C1542.6 488.702 1543.88 486.793 1545.49 485.186C1547.1 483.58 1549.01 482.306 1551.11 481.438C1553.21 480.571 1555.47 480.126 1557.74 480.13Z" stroke="#59221D" stroke-width="5" stroke-miterlimit="10" stroke-linecap="round"/>
<path d="M1514.67 464.74H1518.5C1524.32 464.74 1529.89 467.05 1534.01 471.163C1538.12 475.276 1540.43 480.854 1540.43 486.67V517.76H1514.67C1508.85 517.76 1503.28 515.45 1499.16 511.337C1495.05 507.224 1492.74 501.646 1492.74 495.83V486.67C1492.74 480.854 1495.05 475.276 1499.16 471.163C1503.28 467.05 1508.85 464.74 1514.67 464.74Z" stroke="#59221D" stroke-width="5" stroke-miterlimit="10" stroke-linecap="round"/>
<path d="M1540.44 517.76C1528.45 517.759 1516.78 521.611 1507.14 528.748C1497.51 535.885 1490.42 545.93 1486.93 557.4L1387.87 889.4" stroke="#59221D" stroke-width="5" stroke-miterlimit="10" stroke-linecap="round"/>
<path d="M2825.17 1475.48C2850.46 1475.48 2870.97 1447.02 2870.97 1411.92C2870.97 1376.82 2850.46 1348.36 2825.17 1348.36C2799.88 1348.36 2779.37 1376.82 2779.37 1411.92C2779.37 1447.02 2799.88 1475.48 2825.17 1475.48Z" fill="#FFC200"/>
<path d="M2814.03 1469.6C2839.32 1469.6 2859.83 1441.14 2859.83 1406.04C2859.83 1370.94 2839.32 1342.48 2814.03 1342.48C2788.74 1342.48 2768.23 1370.94 2768.23 1406.04C2768.23 1441.14 2788.74 1469.6 2814.03 1469.6Z" stroke="#59221D" stroke-width="5" stroke-miterlimit="10" stroke-linecap="round"/>
<path d="M2775.12 1547.87C2775.13 1497.95 2793.66 1449.81 2827.12 1412.77" stroke="#59221D" stroke-width="5" stroke-miterlimit="10" stroke-linecap="round"/>
<path d="M1509.89 1300.27L1755.77 1259.4L1827.22 1437.11C1832.42 1450.04 1833.8 1464.2 1831.19 1477.9C1828.58 1491.59 1822.09 1504.25 1812.49 1514.36L1800.2 1527.36V1582.93H1506.2L1509.89 1300.27Z" fill="#59221D"/>
<path d="M1812.49 1514.36C1822.09 1504.25 1828.58 1491.59 1831.19 1477.9C1833.8 1464.2 1832.42 1450.04 1827.22 1437.11L1755.77 1259.4C1772.99 1256.54 1790.67 1259.33 1806.18 1267.35C1821.68 1275.38 1834.17 1288.21 1841.77 1303.92L1918.84 1463.22C1945.62 1518.58 1905.29 1582.88 1843.84 1582.88H1800.2V1527.31L1812.49 1514.36Z" fill="#A74602"/>
<path d="M1503.17 1301.22C1488.95 1303.63 1475.51 1309.42 1464 1318.11C1452.48 1326.79 1443.22 1338.12 1436.99 1351.13L1366.87 1497.68C1311.12 1614.19 1436.14 1734.41 1550.38 1674.15L1723.38 1582.88H1911.5C1915.59 1582.88 1919.51 1581.26 1922.4 1578.37C1925.29 1575.48 1926.91 1571.56 1926.91 1567.47C1926.91 1564.62 1926.12 1561.82 1924.62 1559.39C1923.12 1556.96 1920.98 1554.99 1918.43 1553.71L1834.12 1511.22C1804.75 1496.42 1772.31 1488.71 1739.42 1488.71H1557.81L1560.09 1350.1C1560.21 1342.94 1558.75 1335.84 1555.81 1329.31C1552.87 1322.78 1548.53 1316.97 1543.1 1312.3C1537.67 1307.64 1531.27 1304.23 1524.37 1302.31C1517.47 1300.39 1510.23 1300.02 1503.17 1301.22Z" fill="#A74602"/>
<path d="M1911.5 1579.62C1920.01 1579.62 1926.91 1575.98 1926.91 1567.47C1926.91 1564.62 1926.12 1561.82 1924.62 1559.39C1923.12 1556.96 1920.98 1554.99 1918.43 1553.71L1834.12 1511.22C1804.75 1496.42 1772.31 1488.71 1739.42 1488.71H1586.37C1558.42 1488.71 1530.97 1496.2 1506.89 1510.4" stroke="#59221D" stroke-width="5" stroke-miterlimit="10" stroke-linecap="round"/>
<path d="M1701.67 1554.6C1701.67 1561.23 1704.3 1567.59 1708.99 1572.28C1713.68 1576.97 1720.04 1579.6 1726.67 1579.6" stroke="#59221D" stroke-width="5" stroke-miterlimit="10" stroke-linecap="round"/>
<path d="M1823.05 1536.56L1886.05 1562.36C1889.47 1563.76 1892.4 1566.16 1894.46 1569.23C1896.52 1572.3 1897.62 1575.92 1897.62 1579.62" stroke="#59221D" stroke-width="5" stroke-miterlimit="10" stroke-linecap="round"/>
<path d="M1781.32 1542.18L1830.58 1562.36C1834 1563.76 1836.93 1566.16 1838.99 1569.23C1841.05 1572.3 1842.15 1575.92 1842.15 1579.62" stroke="#59221D" stroke-width="5" stroke-miterlimit="10" stroke-linecap="round"/>
<path d="M1759.34 1258.89L1632.13 1280C1620.05 1331 1574.7 1362.46 1524.58 1345.18C1415.58 1307.6 1602.88 1156.67 1635.03 1128.62C1669.41 1098.62 1715.03 1097.76 1725.58 1124.7C1735.35 1149.57 1715.08 1160.7 1700.58 1162.76C1702.18 1174.26 1713.31 1242.63 1759.34 1258.89Z" fill="#FFC200"/>
<path d="M1691.15 1218.54V1277.86C1691.15 1286.7 1687.64 1295.18 1681.39 1301.43C1675.13 1307.69 1666.65 1311.2 1657.81 1311.2C1648.97 1311.2 1640.49 1307.69 1634.24 1301.43C1627.98 1295.18 1624.47 1286.7 1624.47 1277.86V1189.6L1691.15 1218.54Z" fill="#A74602"/>
<path d="M1624.47 1189.6L1691.15 1218.54V1270.25L1650.74 1244.91C1642.53 1238.22 1635.91 1229.78 1631.37 1220.22C1626.82 1210.65 1624.47 1200.19 1624.47 1189.6Z" fill="#59221D"/>
<path d="M1698.16 1162.7V1202.88C1698.16 1206.32 1697.48 1209.72 1696.17 1212.89C1694.85 1216.07 1692.93 1218.95 1690.5 1221.39C1688.07 1223.82 1685.18 1225.74 1682.01 1227.06C1678.83 1228.37 1675.43 1229.05 1671.99 1229.05H1665.93C1658.85 1229.05 1651.89 1227.24 1645.71 1223.79C1639.52 1220.34 1634.33 1215.36 1630.62 1209.33H1612.48C1607.93 1209.22 1603.61 1207.34 1600.43 1204.08C1597.25 1200.83 1595.47 1196.46 1595.47 1191.91C1595.47 1187.35 1597.25 1182.98 1600.43 1179.73C1603.61 1176.47 1607.93 1174.59 1612.48 1174.48H1617.92C1620.49 1174.47 1623 1175.27 1625.09 1176.77L1655.3 1142.23C1674.5 1163.88 1698.16 1162.7 1698.16 1162.7Z" fill="#A74602"/>
<path d="M1621.59 1194.42C1621.59 1191.44 1620.41 1188.58 1618.3 1186.47C1616.19 1184.36 1613.33 1183.18 1610.35 1183.18" stroke="#59221D" stroke-width="5" stroke-miterlimit="10" stroke-linecap="round"/>
<path d="M1696 1167.89C1696 1167.89 1685.72 1166.76 1679 1174.4C1674.68 1179.32 1674.5 1191.4 1680.09 1199.34" stroke="#59221D" stroke-width="5" stroke-miterlimit="10" stroke-linecap="round"/>
<path d="M1658.13 1189.14C1659.86 1189.14 1661.27 1187.22 1661.27 1184.86C1661.27 1182.5 1659.86 1180.58 1658.13 1180.58C1656.4 1180.58 1654.99 1182.5 1654.99 1184.86C1654.99 1187.22 1656.4 1189.14 1658.13 1189.14Z" fill="#59221D"/>
<path d="M1687.35 1189.14C1689.08 1189.14 1690.49 1187.22 1690.49 1184.86C1690.49 1182.5 1689.08 1180.58 1687.35 1180.58C1685.62 1180.58 1684.21 1182.5 1684.21 1184.86C1684.21 1187.22 1685.62 1189.14 1687.35 1189.14Z" fill="#59221D"/>
<path d="M1679 1209.52C1679 1209.52 1667.35 1212.52 1665.9 1204.15" stroke="#59221D" stroke-width="5" stroke-miterlimit="10" stroke-linecap="round"/>
<path d="M1643.68 1172.11C1643.68 1172.11 1652.52 1165.25 1663.68 1167.41" stroke="#59221D" stroke-width="5" stroke-miterlimit="10" stroke-linecap="round"/>
<path d="M1323.75 1322.44L1278.92 1523C1275.26 1539.37 1266.32 1554.09 1253.48 1564.89C1240.63 1575.68 1224.6 1581.96 1207.84 1582.75C1206.65 1582.75 1205.44 1582.84 1204.23 1582.84H779.39C772.272 1582.84 765.245 1581.24 758.831 1578.15C752.416 1575.07 746.778 1570.58 742.335 1565.02C737.892 1559.45 734.757 1552.96 733.164 1546.03C731.57 1539.09 731.559 1531.88 733.13 1524.94L757 1419.57C763.239 1391.99 778.669 1367.36 800.756 1349.71C822.844 1332.06 850.277 1322.44 878.55 1322.44H1323.75Z" fill="#7EBAD2"/>
<path d="M821.15 1582.88C854.15 1521.08 928.33 1478.02 1014.51 1478.02C1100.69 1478.02 1171.51 1521.02 1204.58 1582.79L821.15 1582.88Z" fill="white"/>
<path d="M1097.42 1492.44L1072.52 1582.82V1582.88H1067.41V1582.82L1070.1 1484.29C1079.37 1486.43 1088.49 1489.15 1097.42 1492.44Z" fill="#59221D"/>
<path d="M1205.06 1436.39V1582.88H1072.29L1113.18 1436.39C1113.18 1444.83 1133.58 1451.67 1158.76 1451.67C1183.94 1451.67 1202.05 1444.27 1205.06 1436.39Z" fill="white"/>
<path d="M1205.06 1436.39C1202.06 1444.27 1183.93 1451.67 1158.76 1451.67C1133.59 1451.67 1113.18 1444.83 1113.18 1436.39V1373.39C1113.18 1373.39 1120.18 1370.68 1128.81 1381.33C1137.44 1391.98 1143.81 1388.19 1147.75 1379.33C1152.16 1369.51 1168.33 1322.33 1191.05 1322.33C1209.52 1322.33 1207.05 1358.92 1205.99 1369.67C1205.98 1369.84 1206.02 1370.01 1206.11 1370.16C1206.2 1370.3 1206.34 1370.41 1206.5 1370.48C1206.66 1370.54 1206.84 1370.55 1207 1370.5C1207.17 1370.45 1207.31 1370.36 1207.42 1370.22C1210.68 1365.95 1217.66 1357.44 1221.18 1357.99C1225.87 1358.81 1206.5 1432.64 1205.06 1436.39Z" fill="#A74602"/>
<path d="M1184.95 1326.18L1168.32 1378.48" stroke="#59221D" stroke-width="5" stroke-miterlimit="10" stroke-linecap="round"/>
<path d="M1198 1329.53L1182.46 1380.66" stroke="#59221D" stroke-width="5" stroke-miterlimit="10" stroke-linecap="round"/>
<path d="M1206.51 1370.48L1202.54 1382.45" stroke="#59221D" stroke-width="5" stroke-miterlimit="10" stroke-linecap="round"/>
<path d="M975.29 1455.63H1045.35V1478.07C1045.35 1486.74 1041.91 1495.05 1035.78 1501.19C1029.65 1507.32 1021.33 1510.76 1012.66 1510.76H1008C999.33 1510.76 991.016 1507.32 984.885 1501.19C978.754 1495.05 975.31 1486.74 975.31 1478.07V1455.63H975.29Z" fill="#A74602"/>
<path d="M975.29 1455.63H1045.35V1478.3C1045.35 1483.12 1044.27 1487.89 1042.2 1492.24C1040.12 1496.6 1037.1 1500.43 1033.35 1503.47L996.05 1487.32C989.878 1484.64 984.625 1480.21 980.936 1474.58C977.248 1468.95 975.286 1462.36 975.29 1455.63Z" fill="#59221D"/>
<path d="M975.39 1437.35C975.39 1438.19 975.724 1439 976.318 1439.6C976.912 1440.19 977.719 1440.53 978.56 1440.53H980.27C981.114 1440.53 981.923 1440.19 982.519 1439.6C983.115 1439 983.45 1438.19 983.45 1437.35V1433.62C983.45 1429.09 984.343 1424.6 986.077 1420.42C987.811 1416.23 990.352 1412.43 993.556 1409.23C996.759 1406.03 1000.56 1403.49 1004.75 1401.75C1008.93 1400.02 1013.42 1399.13 1017.95 1399.13H1056.14L1058.54 1443.24C1058.77 1447.41 1058.14 1451.59 1056.7 1455.51C1055.26 1459.44 1053.03 1463.03 1050.16 1466.06C1047.29 1469.1 1043.82 1471.51 1039.99 1473.16C1036.15 1474.82 1032.01 1475.67 1027.83 1475.67H1006.56C1001.34 1475.67 996.207 1474.34 991.642 1471.81C987.078 1469.28 983.233 1465.63 980.47 1461.2H960.87C958.644 1461.2 956.44 1460.76 954.384 1459.9C952.329 1459.05 950.463 1457.79 948.895 1456.21C947.327 1454.63 946.087 1452.76 945.247 1450.7C944.407 1448.63 943.983 1446.43 944 1444.2C944.108 1439.69 945.984 1435.41 949.223 1432.28C952.461 1429.14 956.803 1427.41 961.31 1427.45H965.48C968.103 1427.45 970.619 1428.49 972.477 1430.34C974.335 1432.19 975.382 1434.71 975.39 1437.33V1437.35Z" fill="#A74602"/>
<path d="M983.45 1437.35C983.45 1438.19 983.115 1439 982.519 1439.6C981.922 1440.19 981.114 1440.53 980.27 1440.53H978.56C977.719 1440.53 976.912 1440.19 976.318 1439.6C975.724 1439 975.39 1438.19 975.39 1437.35C975.388 1434.73 974.346 1432.22 972.494 1430.37C970.641 1428.51 968.13 1427.47 965.51 1427.47L963.23 1411.13C963.23 1397.25 973.18 1386 985.45 1386C987.741 1386 990.014 1386.4 992.17 1387.17C994.24 1375.52 1003.95 1366.69 1015.62 1366.69C1020.95 1366.7 1026.11 1368.56 1030.21 1371.95C1031.9 1366.36 1035.34 1361.46 1040.02 1357.97C1044.7 1354.48 1050.37 1352.58 1056.21 1352.55C1071.21 1352.55 1083.43 1365.01 1083.43 1380.39C1083.43 1395.77 1071.24 1408.23 1056.21 1408.23C1052.4 1408.23 1048.64 1407.41 1045.17 1405.84C1041.7 1404.28 1038.6 1401.99 1036.08 1399.13H1018C1009.11 1399.12 1000.56 1402.55 994.132 1408.7C987.708 1414.85 983.91 1423.25 983.53 1432.13L983.45 1437.35Z" fill="#FFC200"/>
<path d="M968.77 1442.86C968.416 1440.78 967.339 1438.89 965.729 1437.53C964.119 1436.17 962.079 1435.42 959.97 1435.42" stroke="#59221D" stroke-width="5" stroke-miterlimit="10" stroke-linecap="round"/>
<path d="M1053.48 1418.49C1053.48 1418.49 1043.79 1414.32 1036.57 1422.91C1032.35 1427.91 1030.31 1440.53 1034.4 1446.76" stroke="#59221D" stroke-width="5" stroke-miterlimit="10" stroke-linecap="round"/>
<path d="M1014.58 1438.74C1016.31 1438.74 1017.72 1436.82 1017.72 1434.46C1017.72 1432.1 1016.31 1430.18 1014.58 1430.18C1012.85 1430.18 1011.44 1432.1 1011.44 1434.46C1011.44 1436.82 1012.85 1438.74 1014.58 1438.74Z" fill="#59221D"/>
<path d="M1043.79 1438.74C1045.52 1438.74 1046.93 1436.82 1046.93 1434.46C1046.93 1432.1 1045.52 1430.18 1043.79 1430.18C1042.06 1430.18 1040.65 1432.1 1040.65 1434.46C1040.65 1436.82 1042.06 1438.74 1043.79 1438.74Z" fill="#59221D"/>
<path d="M1033.23 1458C1033.23 1458 1022.38 1459.08 1020.13 1453.71" stroke="#59221D" stroke-width="5" stroke-miterlimit="10" stroke-linecap="round"/>
<path d="M1001.21 1423.88C1001.21 1423.88 1005.78 1416.96 1017.98 1417.01" stroke="#59221D" stroke-width="5" stroke-miterlimit="10" stroke-linecap="round"/>
<path d="M3052.91 302.04C3135.49 302.04 3202.43 235.098 3202.43 152.52C3202.43 69.9424 3135.49 3 3052.91 3C2970.33 3 2903.39 69.9424 2903.39 152.52C2903.39 235.098 2970.33 302.04 3052.91 302.04Z" stroke="#FFC200" stroke-width="6" stroke-miterlimit="10"/>
</g>
<defs>
<clipPath id="clip0_92_695">
<rect width="4100.87" height="2342.68" fill="white"/>
</clipPath>
</defs>
</svg>
